<svg width="515" height="177" viewBox="0 0 515 177" fill="none" xmlns="http://www.w3.org/2000/svg">
<path d="M104.411 123.641L116.133 128.031L120.523 116.309C121.04 114.928 120.987 113.399 120.377 112.058L120.273 111.831C119.059 109.163 115.912 107.984 113.244 109.199C111.776 109.867 110.692 111.165 110.296 112.729L109.894 114.321L108.429 113.579C106.99 112.85 105.299 112.814 103.831 113.482C101.163 114.697 99.9844 117.844 101.199 120.512L101.302 120.739C101.912 122.08 103.031 123.124 104.411 123.641Z" fill="#A97761"/>
<path d="M134.343 126.426C135.666 126.911 137.256 125.892 137.893 124.15C138.53 122.409 137.973 120.605 136.65 120.12C135.326 119.636 133.737 120.655 133.099 122.396C132.462 124.138 133.019 125.942 134.343 126.426Z" fill="#A97761"/>
<path d="M129.313 129.203C130.697 129.083 131.692 127.51 131.535 125.688C131.377 123.866 130.126 122.487 128.742 122.606C127.357 122.726 126.363 124.3 126.52 126.122C126.678 127.944 127.928 129.323 129.313 129.203Z" fill="#A97761"/>
<path d="M140.097 129.142C141.312 129.856 143.059 129.138 143.998 127.54C144.937 125.94 144.713 124.066 143.498 123.352C142.282 122.638 140.536 123.356 139.597 124.954C138.657 126.554 138.882 128.428 140.097 129.142Z" fill="#A97761"/>
<path d="M146.606 131.037C145.818 129.892 143.959 129.803 142.452 130.84C140.946 131.876 140.363 133.645 141.151 134.79C141.939 135.934 143.799 136.023 145.305 134.986C146.811 133.95 147.394 132.182 146.606 131.037Z" fill="#A97761"/>
<path d="M138.515 131.253C138.365 130.213 137.727 129.264 136.708 128.783C135.69 128.303 134.552 128.414 133.654 128.958C132.661 129.561 132.026 130.348 131.172 130.692C130.317 131.036 127.922 130.011 126.432 132.718C125.379 134.63 126.345 137.047 128.319 137.979C129.819 138.687 131.007 138.608 131.878 139.019C132.75 139.43 133.444 140.397 134.944 141.105C136.918 142.036 139.398 141.246 140.204 139.217C141.346 136.346 139.033 135.149 138.755 134.27C138.477 133.392 138.681 132.401 138.515 131.253Z" fill="#A97761"/>
<path fill-rule="evenodd" clip-rule="evenodd" d="M125.53 0L123.678 0.661376L112.829 6.61376L108.463 4.2328L105.155 2.91005L101.45 1.85185L97.349 1.19048L92.3214 1.0582L88.3523 1.45503L84.5154 2.38095L80.9432 3.7037L74.9894 6.61376L67.0511 11.2434L27.8888 32.8042L18.4951 37.6984L14.3937 40.6085L11.8799 43.1217L9.23377 46.6931L6.71997 51.455L5.39692 55.6878L5 58.5979V61.3757L5.52922 64.9471L6.71997 68.9154L8.96916 73.9418L15.7167 85.7143L18.2305 90.873L19.0244 91.2699L39.0024 91.9312L41.2516 94.3122L42.0455 94.4445L42.707 93.5185L43.8977 90.0794L45.75 87.5661L49.0576 84.9206L52.4976 83.4656L54.8791 82.9365L57.7898 82.672L61.362 82.9365L64.8019 83.7302L69.9618 85.9788L71.1526 86.2434L71.0203 81.2169L71.4172 78.836L72.4756 75.7937L74.1956 72.8836L76.1802 70.6349L78.5617 68.6508L82.1339 66.4021L88.0877 63.2275L88.8815 63.8889L90.6015 67.5926L91.3953 68.1217H91.9245L93.5122 67.4603L96.1583 65.873L98.5398 67.5926L99.3336 67.8572H101.583L104.361 66.9312L109.521 64.0212L112.035 63.0952L112.3 63.6243L112.167 64.0212L110.315 65.3439V66.0053L113.358 71.8254L113.093 74.3386L110.976 83.4656L110.05 88.8889L109.918 93.5185L110.315 95.8995L110.712 96.8254L110.58 97.09H77.7679L77.3709 97.3545L76.974 98.2804L77.2386 99.4709L79.8847 99.6032L80.5463 100.132L80.6786 115.608L81.3401 124.206L82.5308 131.349L83.7216 135.847L85.3092 140.212L88.3523 146.164L91.7922 150.926L96.8198 155.952L99.3336 157.937L101.054 158.862L101.847 159.656V160.317L101.45 160.582L98.8044 160.317L95.8937 159.524L92.7183 158.333L88.6169 156.217L85.0446 153.704L80.9432 149.735L77.2386 144.709L74.5925 139.683L72.6079 134.524L70.888 128.042L69.8295 121.693L69.168 113.492V105.291L69.8295 96.164L70.888 88.8889L68.5065 87.1693L66.3896 86.1111L63.7435 85.1852L60.1713 84.5238L55.5406 84.6561L52.1006 85.582L50.3807 86.3757L48.3961 87.6984L46.1469 89.9471L44.1623 93.254L39.267 110.317L35.2979 126.984L32.5195 141.27L30.5349 147.751L28.0211 152.646L25.375 156.217L22.4643 159.127L16.7752 163.492L14.1291 166.534L13.0706 168.783L12.6737 170.37L12.5414 173.677L12.9383 174.868L159.003 174.735L159.136 173.016L157.812 168.651L155.96 165.741L154.108 163.889L151.991 162.434L150.271 161.64L147.36 160.847L142.862 160.582L142.73 159.921L143.92 158.73L145.905 157.54L148.022 155.82L152.917 150.794L156.622 145.503L159.268 140.212L161.649 133.201L163.369 124.206L164.031 116.402L164.163 99.8677L164.428 99.6032L165.883 99.7355L166.942 99.4709L167.735 98.9418L167.868 98.2804L167.206 97.2222L148.022 97.3545L147.89 97.09L148.551 94.3122L148.948 91.1376V86.2434L147.89 81.4815L146.699 78.9683L145.508 77.2487L143.259 75L140.216 73.0159L136.776 71.2963L124.868 66.1376L123.942 65.0794L121.429 60.0529L121.032 59.9206L119.444 60.582H118.782L118.253 59.9206V58.9947L122.619 57.1429L125.133 55.1587L126.192 53.0423L125.927 50.1323L130.558 47.3545L127.912 42.4603L128.441 41.6667L130.425 40.0794L121.825 22.8836L133.468 16.4021L133.998 15.4762L125.53 0ZM82.7954 99.7355L161.649 99.6032L161.914 99.8677L161.782 113.228L161.252 121.429L160.459 127.513L159.136 133.466L158.077 136.773L156.622 140.344L154.24 144.709L151.065 149.074L146.567 153.704L142.994 156.614L140.745 157.937L140.613 160.582H104.361L104.229 158.069L98.9367 154.497L94.7029 150.397L92.8506 148.148L89.543 143.122L86.8969 137.434L85.0446 131.217L83.8539 124.074L83.3247 117.196L82.7954 99.7355ZM15.0552 171.296L15.7167 168.783L16.7752 167.064L19.1567 164.683L24.5812 160.582L27.095 158.069L30.5349 153.439L32.6518 149.339L34.2394 144.974L35.2979 141.005L38.3409 124.735L41.7808 110.053L45.2208 98.1482L47.3377 92.9894L49.8515 89.9471L53.0268 87.963L56.7313 87.037H59.7743L64.405 88.0952L68.1096 89.9471L66.7865 102.116L66.5219 112.434L67.0511 120.635L68.5065 129.365L70.7557 136.905L73.931 143.915L77.5032 149.471L79.2232 151.587L82.6631 155.026L87.0292 158.333L91.1307 160.582L94.5706 161.905L98.6721 162.831L109.786 163.36L128.308 162.831H142.862L147.36 163.36L150.536 164.418L152.653 165.741L154.373 167.46L155.431 169.048L156.489 171.561V172.355L15.1875 172.487L15.0552 171.296ZM127.25 16.4021V16.6667L126.192 17.5926L49.9838 58.2011L31.0641 68.6508L24.4489 71.9577L23.655 71.8254L17.3044 59.6561L15.0552 53.0423L14.3937 49.3386V45.7672L15.3198 43.254L17.4367 41.1376L21.1412 38.8889L27.4919 35.7143L66.7865 13.7566L79.6201 7.01058L84.1185 5.15873L88.3523 3.96825L90.7338 3.57143L96.2906 3.43915L98.5398 3.7037L102.112 4.49735L105.949 5.82011L112.696 9.25926L116.004 7.80423L120.502 5.15873L121.164 5.02646L127.25 16.4021ZM127.25 39.0212L127.118 39.6825L126.192 40.3439L80.1493 64.5503L77.3709 66.2699L75.5187 67.7249L73.2695 69.9736L70.888 73.2804L69.168 77.381L68.6388 80.0265L68.5065 82.2751L63.082 80.6878L60.1713 80.291H56.4667L52.3653 80.9524L49.3222 82.0106L45.75 84.127L43.6331 86.1111L41.5162 89.5503L40.8547 90.0794L38.7378 87.5661L36.224 85.4497L33.8425 84.127L29.8734 82.5397L29.2118 81.8783V81.4815L29.6088 81.0847L34.7687 78.7037L53.6883 68.5185H54.3498L55.6729 69.3122L56.7313 69.5767H58.5836L60.3036 68.9154L60.9651 68.3863L61.8912 66.9312L62.4205 64.1535L63.8758 62.963L122.884 31.4815L123.678 32.0106L126.588 38.0952L127.25 39.0212ZM119.841 24.4709L121.825 28.4392V29.6296L77.2386 52.9101L61.4943 61.7725L60.8328 61.5079L59.642 60.4497L58.319 59.9206L56.8636 59.7884L55.1437 60.3175L53.8206 61.3757L52.8945 62.963L52.6299 63.8889L52.7622 65.873L52.3653 66.4021L28.418 79.3651L27.6242 79.2328L25.2427 74.4709L25.6396 73.8095L30.7995 71.4286L117.459 24.7355L119.047 23.9418L119.841 24.4709ZM22.8612 166.534V167.725L23.1258 168.122L29.0795 168.254H135.982L131.748 166.138H61.0974L55.5406 164.947L51.9683 163.492L49.5868 161.905L47.8669 160.185L46.5438 158.333L44.8239 154.233L44.03 150.529L43.2362 140.608L43.5008 132.672L44.6916 123.677L45.8823 118.254L46.8084 115.344V114.815L44.9562 114.55L39.664 143.254L38.6055 147.09L37.4148 150.132L35.1656 154.365L32.1226 158.466L28.5503 162.037L25.7719 164.286L23.1258 166.005L22.8612 166.534ZM11.8799 47.4868L12.1445 47.7513V50.1323L12.806 54.2328L14.7906 60.1852L17.3044 65.3439L22.9935 75.1323L26.4334 82.0106L28.2857 84.3915L33.9748 86.6402L36.8856 89.0212L36.6209 89.418L30.0057 89.1535L28.6826 88.8889L21.0089 89.0212L19.8182 88.4921L17.1721 83.3333L12.4091 75.5291L10.4245 71.8254L8.96916 68.3863L7.77841 63.8889L7.5138 59.6561L8.04302 55.8201L9.49838 51.455L10.6891 49.0741L11.8799 47.4868ZM155.96 105.688L155.563 105.423H154.24L153.579 105.688L153.446 116.667L153.05 121.958L152.388 126.72L151.594 130.423L150.139 135.053L146.963 141.534L143.524 146.164L140.348 149.206L137.438 151.323L132.013 153.968L128.308 155.026L124.736 155.556H119.973L117.062 155.159L113.887 154.365L110.447 153.042L107.272 151.323L104.361 149.206L101.318 146.296L99.4659 144.048L97.6136 141.27L95.6291 137.434L93.5122 131.482L92.3214 126.058L91.5276 119.577L91.1307 111.905L91.263 105.82L88.8815 105.688L89.0138 116.667L89.4107 121.825L90.2045 127.513L91.3953 132.672L92.4537 135.979L93.6445 138.889L95.8937 143.122L99.3336 147.751L103.567 151.72L107.933 154.497L113.623 156.746L119.312 157.804L123.545 157.937L126.588 157.672L132.41 156.349L135.718 155.026L138.231 153.704L142.465 150.661L146.567 146.296L149.742 141.534L152.388 135.714L154.108 129.894L155.431 122.09L156.093 112.037L155.96 105.688ZM52.6299 166.005L27.095 166.138L26.9627 165.741L31.7256 162.302L35.5625 157.937L37.6794 154.63L39.9286 149.735L41.1193 145.635L41.5162 145.238L41.9131 150L42.5747 154.101L43.2362 156.482L44.2946 158.995L45.3531 160.714L47.3377 162.831L52.6299 166.005ZM106.346 12.5661L103.832 10.582L101.318 9.39154L98.2752 8.46561L94.8352 7.93651H90.4692L86.8969 8.59789L82.5308 10.3175L75.5187 13.8889L52.4976 26.8519L42.9716 31.746L42.4424 32.4074V33.2011L43.1039 33.8624H44.1623L67.845 21.164L79.6201 14.2857L83.8539 12.3016L86.7646 11.2434L90.8661 10.3175L95.0998 10.1852L97.7459 10.582L99.9951 11.2434L103.17 12.6984L104.758 13.8889L105.684 13.7566L106.346 12.963V12.5661ZM126.059 43.6508L127.515 46.4286L127.25 46.8254L92.3214 65.0794L90.7338 62.6984L90.4692 61.9048L91.1307 61.3757L125.662 43.254L126.059 43.6508ZM119.576 70.3704L121.164 71.8254L127.647 80.5556L131.351 86.3757L134.659 93.254L135.718 96.4286V97.3545H130.822L129.499 95.8995L127.912 93.3863L125.133 87.5661L121.958 79.4974L119.444 71.2963L119.576 70.3704ZM122.487 69.3122L125.398 71.164L132.278 76.455L135.718 79.3651L138.231 82.1429L139.951 85.1852L141.01 88.8889L141.407 92.328V96.6931L141.142 97.2222L138.893 97.3545L138.231 96.9577L135.982 90.4762L133.865 86.2434L130.028 80.291L124.736 73.1482L122.355 69.5767L122.487 69.3122ZM126.456 69.0476L140.348 75.5291L141.804 76.5873L144.45 79.4974L146.17 83.0688L146.963 87.3016L146.831 91.799L146.037 96.5609L145.64 97.3545L143.524 97.2222L143.391 91.1376L142.862 87.1693L141.671 83.4656L140.216 81.0847L137.173 77.7778L127.118 70.1058L126.324 69.3122L126.456 69.0476ZM117.459 72.2222L123.281 88.6243L127.647 97.09L127.515 97.3545H121.429L120.502 96.2963L119.312 94.1799L118.253 90.873L117.592 86.3757L117.195 79.2328V73.4127L117.459 72.2222ZM114.946 76.0582L115.343 76.5873L115.475 77.7778V84.5238L115.872 90.0794L116.533 93.1217L118.386 97.09L118.253 97.3545H116.136L113.226 96.9577L112.829 96.2963L112.167 93.5185V89.5503L112.432 87.5661L114.946 76.0582ZM123.81 51.5873L123.678 53.1746L122.487 54.4974L117.856 56.746L107.14 62.8307L102.377 65.2116L101.054 65.6085L99.4659 65.3439L98.8044 64.8148L99.5982 64.1535L123.413 51.455L123.81 51.5873ZM120.37 62.8307L122.355 66.5344L115.21 70.1058L113.623 67.1958V66.2699L117.327 64.0212L119.444 62.963L120.37 62.8307ZM54.8791 99.3386L53.9529 99.7355L52.8945 101.19L52.7622 102.91L53.0268 103.836L53.6883 104.894L54.6144 105.556L55.5406 105.82L57.5252 105.556L58.1867 105.159L58.9805 104.101L59.2451 103.175L58.9805 101.19L58.5836 100.529L57.2606 99.4709L56.2021 99.2064L54.8791 99.3386ZM123.81 3.1746L124.736 3.04233L130.955 14.8148L130.822 15.0794L129.764 15.4762L128.705 14.0212L123.413 3.83598L123.81 3.1746ZM56.3344 62.4339H58.0544L59.2451 63.4921L59.5097 64.0212V65.873L58.4513 67.0635L57.2606 67.1958L56.3344 66.9312L55.5406 66.2699L55.1437 65.4762L55.276 63.4921L56.3344 62.4339ZM138.364 166.27V168.254H144.317L144.185 166.138L138.364 166.27ZM116.533 61.1111L116.666 61.5079L115.872 62.3016L114.813 62.6984H114.284L114.019 62.4339L114.152 61.6402L114.946 60.8466L115.739 60.582L116.533 61.1111ZM55.9375 101.323H56.4667L56.7313 101.587L56.9959 102.513L56.8636 103.175L56.2021 103.571L55.5406 103.439L55.0114 102.778L55.1437 101.852L55.9375 101.323Z" fill="#F8F1E8"/>
<path d="M489.666 52.9621V60.1441C489.666 62.0881 489.756 63.5281 489.936 64.4641C490.116 65.3641 490.53 65.9581 491.178 66.2461C491.862 66.5341 492.924 66.7321 494.364 66.8401V69.0001H477.354V66.8401C478.83 66.7321 479.892 66.5341 480.54 66.2461C481.224 65.9581 481.656 65.3821 481.836 64.5181C482.052 63.6541 482.16 62.3221 482.16 60.5221V38.3281C482.16 34.2601 482.034 31.5961 481.782 30.3361C481.602 29.4001 481.224 28.8241 480.648 28.6081C480.072 28.3561 479.028 28.2301 477.516 28.2301V26.2321L489.558 24.1801V44.1061H489.774C490.89 42.6301 492.132 41.5501 493.5 40.8661C494.904 40.1821 496.596 39.8401 498.576 39.8401C500.376 39.8401 501.96 40.1281 503.328 40.7041C504.732 41.2441 505.92 42.0901 506.892 43.2421C507.828 44.3581 508.53 45.6721 508.998 47.1841C509.502 48.6601 509.754 50.1901 509.754 51.7741V60.1441C509.754 62.1241 509.844 63.5821 510.024 64.5181C510.204 65.4181 510.618 66.0121 511.266 66.3001C511.914 66.5521 512.94 66.7321 514.344 66.8401V69.0001H497.442V66.8401C498.882 66.7681 499.944 66.5881 500.628 66.3001C501.312 66.0121 501.744 65.4361 501.924 64.5721C502.14 63.6721 502.248 62.3221 502.248 60.5221V53.8801C502.248 50.0281 501.834 47.3281 501.006 45.7801C500.178 44.1961 498.756 43.4041 496.74 43.4041C495.624 43.4041 494.652 43.6021 493.824 43.9981C492.996 44.3941 492.276 44.9701 491.664 45.7261C490.98 46.5901 490.476 47.6521 490.152 48.9121C489.828 50.1361 489.666 51.4861 489.666 52.9621Z" fill="#F8F1E8"/>
<path d="M461.163 43.3501H457.221V40.9201C459.345 40.3081 461.145 39.3721 462.621 38.1121C464.097 36.8521 465.195 35.4301 465.915 33.8461H468.669V40.3801H474.879V43.3501H468.669V59.9281C468.669 62.1241 468.921 63.7081 469.425 64.6801C469.929 65.6161 470.739 66.0841 471.855 66.0841C472.575 66.0841 473.187 65.9401 473.691 65.6521C474.231 65.3281 474.681 64.8241 475.041 64.1401L476.175 65.7061C475.167 68.2621 472.791 69.5401 469.047 69.5401C466.563 69.5401 464.619 68.9641 463.215 67.8121C461.847 66.6601 461.163 65.0401 461.163 62.9521V43.3501Z" fill="#F8F1E8"/>
<path d="M450.237 39.8401V60.1441C450.237 62.0521 450.327 63.4741 450.507 64.4101C450.723 65.3461 451.173 65.9761 451.857 66.3001C452.541 66.5881 453.567 66.7681 454.935 66.8401V69.0001H437.925V66.8401C439.293 66.7681 440.319 66.5701 441.003 66.2461C441.687 65.8861 442.137 65.2741 442.353 64.4101C442.605 63.5101 442.731 62.2141 442.731 60.5221V53.8801C442.731 51.7921 442.695 50.0641 442.623 48.6961C442.551 47.3281 442.461 46.4101 442.353 45.9421C442.173 45.0421 441.759 44.4481 441.111 44.1601C440.499 43.8721 439.365 43.7281 437.709 43.7281V41.8921L450.237 39.8401ZM442.299 28.3381C442.299 27.1861 442.695 26.2141 443.487 25.4221C444.315 24.5941 445.323 24.1801 446.511 24.1801C447.663 24.1801 448.635 24.5941 449.427 25.4221C450.255 26.2141 450.669 27.1861 450.669 28.3381C450.669 29.5261 450.255 30.5341 449.427 31.3621C448.635 32.1541 447.663 32.5501 446.511 32.5501C445.323 32.5501 444.315 32.1541 443.487 31.3621C442.695 30.5341 442.299 29.5261 442.299 28.3381Z" fill="#F8F1E8"/>
<path d="M401.118 69.5401L393.72 47.3461C393.36 46.1941 392.946 45.2761 392.478 44.5921C392.01 43.9081 391.47 43.4041 390.858 43.0801C390.246 42.7561 389.526 42.5761 388.698 42.5401V40.3801H404.142V42.5401C402.846 42.5761 401.946 42.7741 401.442 43.1341C400.938 43.4581 400.686 44.0341 400.686 44.8621C400.686 45.2221 400.74 45.6541 400.848 46.1581C400.992 46.6261 401.136 47.1661 401.28 47.7781L404.682 60.4141H404.898L412.458 40.3801H416.886L422.556 60.4141H422.826L427.146 49.2361C427.398 48.6241 427.578 48.0841 427.686 47.6161C427.83 47.1121 427.938 46.6621 428.01 46.2661C428.082 45.8341 428.118 45.4561 428.118 45.1321C428.118 44.1961 427.812 43.5301 427.2 43.1341C426.588 42.7381 425.76 42.5401 424.716 42.5401V40.3801H436.326V42.5401C435.678 42.5401 435.138 42.6121 434.706 42.7561C434.274 42.9001 433.842 43.2421 433.41 43.7821C433.014 44.3221 432.546 45.1501 432.006 46.2661C431.502 47.3821 430.872 48.9121 430.116 50.8561L422.664 69.5401H418.398L412.674 50.3701H412.458L405.168 69.5401H401.118Z" fill="#F8F1E8"/>
<path d="M354.102 69.5401C351.366 69.5401 348.936 68.9281 346.812 67.7041C344.724 66.4441 343.086 64.7161 341.898 62.5201C340.71 60.2881 340.116 57.7501 340.116 54.9061C340.116 52.0261 340.71 49.4521 341.898 47.1841C343.086 44.9161 344.706 43.1341 346.758 41.8381C348.846 40.5061 351.186 39.8401 353.778 39.8401C355.578 39.8401 357.18 40.1101 358.584 40.6501C359.988 41.1901 361.194 42.1081 362.202 43.4041H362.418V38.8141C362.418 36.6901 362.382 34.8721 362.31 33.3601C362.274 31.8121 362.202 30.8041 362.094 30.3361C361.95 29.5801 361.41 29.0401 360.474 28.7161C359.538 28.3561 358.116 28.1761 356.208 28.1761V26.3401L369.87 24.1801V55.0681C369.87 57.7321 369.888 59.8021 369.924 61.2781C369.996 62.7541 370.104 63.8701 370.248 64.6261C370.428 65.5621 370.752 66.1741 371.22 66.4621C371.688 66.7141 372.696 66.8401 374.244 66.8401V68.9461L363.984 69.5401V65.5441H363.768C362.544 66.8761 361.104 67.8841 359.448 68.5681C357.828 69.2161 356.046 69.5401 354.102 69.5401ZM362.31 55.6081V53.5021C362.31 52.1341 362.166 50.8741 361.878 49.7221C361.59 48.5341 361.158 47.4901 360.582 46.5901C359.934 45.5461 359.106 44.7541 358.098 44.2141C357.09 43.6741 356.01 43.4041 354.858 43.4041C352.77 43.4041 351.15 44.3941 349.998 46.3741C348.882 48.3181 348.324 51.1261 348.324 54.7981C348.324 58.5061 348.882 61.3861 349.998 63.4381C351.114 65.4541 352.716 66.4621 354.804 66.4621C355.992 66.4621 357.126 66.1561 358.206 65.5441C359.286 64.9321 360.168 64.1041 360.852 63.0601C361.356 62.2681 361.716 61.2961 361.932 60.1441C362.184 58.9561 362.31 57.4441 362.31 55.6081Z" fill="#F8F1E8"/>
<path d="M334.07 62.0881L335.582 63.9781C332.306 67.6861 328.22 69.5401 323.324 69.5401C320.372 69.5401 317.78 68.9281 315.548 67.7041C313.316 66.4801 311.57 64.7881 310.31 62.6281C309.086 60.4321 308.474 57.9121 308.474 55.0681C308.474 52.0801 309.122 49.4521 310.418 47.1841C311.75 44.8801 313.586 43.0801 315.926 41.7841C318.266 40.4881 320.948 39.8401 323.972 39.8401C327.788 39.8401 330.758 40.8841 332.882 42.9721C335.006 45.0241 336.068 47.8861 336.068 51.5581C336.068 52.1341 335.978 52.4941 335.798 52.6381C335.618 52.7461 335.114 52.8001 334.286 52.8001H316.898C316.826 52.9801 316.772 53.2141 316.736 53.5021C316.7 53.7901 316.682 54.1501 316.682 54.5821C316.682 56.9221 317.024 58.9561 317.708 60.6841C318.428 62.3761 319.418 63.6901 320.678 64.6261C321.974 65.5621 323.486 66.0301 325.214 66.0301C326.726 66.0301 328.22 65.6881 329.696 65.0041C331.208 64.3201 332.666 63.3481 334.07 62.0881ZM317.276 49.7761H325.106C326.582 49.7761 327.518 49.7041 327.914 49.5601C328.31 49.3801 328.508 48.9841 328.508 48.3721C328.508 46.7881 328.058 45.4921 327.158 44.4841C326.258 43.4761 325.124 42.9721 323.756 42.9721C322.208 42.9721 320.822 43.6201 319.598 44.9161C318.41 46.1761 317.636 47.7961 317.276 49.7761Z" fill="#F8F1E8"/>
<path d="M272.903 69.0001V66.8401C274.235 66.8041 275.243 66.6241 275.927 66.3001C276.611 65.9401 277.079 65.3101 277.331 64.4101C277.583 63.5101 277.709 62.2141 277.709 60.5221V37.6261C277.709 35.2501 277.655 33.3421 277.547 31.9021C277.475 30.4621 277.133 29.4721 276.521 28.9321C276.161 28.6081 275.693 28.4101 275.117 28.3381C274.577 28.2661 273.893 28.2301 273.065 28.2301V26.2321L285.107 24.1801V54.2041L290.291 49.2901C292.163 47.5261 293.495 46.1941 294.287 45.2941C295.079 44.3941 295.475 43.7641 295.475 43.4041C295.475 43.0801 295.133 42.8641 294.449 42.7561C293.801 42.6121 292.577 42.5401 290.777 42.5401V40.3801H305.519V42.5401C304.619 42.5401 303.791 42.6481 303.035 42.8641C302.279 43.0441 301.541 43.3681 300.821 43.8361C300.101 44.2681 299.327 44.8801 298.499 45.6721L293.261 50.5861L302.603 63.8161C303.179 64.5721 303.719 65.1841 304.223 65.6521C304.727 66.0841 305.285 66.3901 305.897 66.5701C306.545 66.7501 307.301 66.8401 308.165 66.8401V69.0001H291.371V66.8401C292.523 66.8401 293.333 66.8041 293.801 66.7321C294.269 66.6241 294.503 66.4441 294.503 66.1921C294.503 65.9401 294.305 65.4541 293.909 64.7341C293.513 64.0141 292.847 62.9701 291.911 61.6021L287.807 55.4461L285.107 58.0381V60.1441C285.107 62.0161 285.197 63.4381 285.377 64.4101C285.593 65.3461 285.971 65.9941 286.511 66.3541C287.051 66.6781 287.825 66.8401 288.833 66.8401V69.0001H272.903Z" fill="#F8F1E8"/>
<path d="M265.493 69.5401C263.837 69.5401 262.559 69.0541 261.659 68.0821C260.795 67.0741 260.363 65.6341 260.363 63.7621H260.093C259.121 65.5621 257.789 66.9661 256.097 67.9741C254.405 68.9821 252.551 69.4861 250.535 69.4861C248.879 69.4861 247.475 69.1801 246.323 68.5681C245.171 67.9201 244.307 67.0921 243.731 66.0841C243.155 65.0761 242.867 63.9961 242.867 62.8441C242.867 61.0801 243.587 59.5141 245.027 58.1461C246.503 56.7421 248.843 55.3561 252.047 53.9881L259.607 50.7481V48.4801C259.607 46.4281 259.229 44.9161 258.473 43.9441C257.753 42.9721 256.637 42.4861 255.125 42.4861C254.081 42.4861 253.289 42.7561 252.749 43.2961C252.209 43.8001 251.687 44.7361 251.183 46.1041C250.895 46.9321 250.445 47.6161 249.833 48.1561C249.221 48.6961 248.411 48.9661 247.403 48.9661C246.395 48.9661 245.603 48.6781 245.027 48.1021C244.487 47.4901 244.217 46.6801 244.217 45.6721C244.217 43.8361 245.171 42.4141 247.079 41.4061C248.987 40.3621 251.795 39.8401 255.503 39.8401C259.607 39.8401 262.523 40.5601 264.251 42.0001C265.979 43.4401 266.843 45.8881 266.843 49.3441V61.1701C266.843 62.7541 266.987 63.9241 267.275 64.6801C267.599 65.4001 268.103 65.7601 268.787 65.7601C269.075 65.7601 269.363 65.7061 269.651 65.5981C269.975 65.4901 270.281 65.3101 270.569 65.0581L271.379 66.6241C270.911 67.4881 270.137 68.1901 269.057 68.7301C267.977 69.2701 266.789 69.5401 265.493 69.5401ZM253.883 64.4641C254.891 64.4641 255.827 64.2121 256.691 63.7081C257.555 63.2041 258.257 62.5201 258.797 61.6561C259.337 60.7561 259.607 59.7841 259.607 58.7401V53.6101C257.339 54.6901 255.539 55.6441 254.207 56.4721C252.875 57.3001 251.921 58.0921 251.345 58.8481C250.769 59.6041 250.481 60.4141 250.481 61.2781C250.481 62.2501 250.787 63.0241 251.399 63.6001C252.011 64.1761 252.839 64.4641 253.883 64.4641Z" fill="#F8F1E8"/>
<path d="M199.782 69.0001V66.8401C201.402 66.7681 202.608 66.5881 203.4 66.3001C204.228 65.9761 204.786 65.3821 205.074 64.5181C205.362 63.6541 205.506 62.3761 205.506 60.6841V35.7361C205.506 34.0441 205.398 32.7841 205.182 31.9561C204.966 31.0921 204.516 30.4981 203.832 30.1741C203.184 29.8501 202.212 29.6521 200.916 29.5801V27.4201H218.25C223.65 27.4201 227.826 28.3021 230.778 30.0661C233.73 31.8301 235.206 34.3141 235.206 37.5181C235.206 39.6781 234.432 41.5141 232.884 43.0261C231.372 44.5021 229.068 45.6901 225.972 46.5901V46.8061C228.636 46.8061 230.922 47.2921 232.83 48.2641C234.774 49.2361 236.268 50.5681 237.312 52.2601C238.392 53.9521 238.932 55.8781 238.932 58.0381C238.932 59.8741 238.482 61.4761 237.582 62.8441C236.718 64.2121 235.458 65.3641 233.802 66.3001C232.218 67.2001 230.31 67.8841 228.078 68.3521C225.846 68.7841 223.344 69.0001 220.572 69.0001H199.782ZM220.95 65.7061C226.746 65.7061 229.644 63.0961 229.644 57.8761C229.644 56.2921 229.392 54.9241 228.888 53.7721C228.384 52.5841 227.592 51.6121 226.512 50.8561C225.432 50.1001 224.028 49.5601 222.3 49.2361C220.572 48.9121 218.484 48.7501 216.036 48.7501H213.444V59.5501C213.444 61.7461 214.02 63.3301 215.172 64.3021C216.324 65.2381 218.25 65.7061 220.95 65.7061ZM213.444 45.5101H216.63C218.25 45.5101 219.654 45.3661 220.842 45.0781C222.066 44.7541 223.074 44.3041 223.866 43.7281C224.766 43.1161 225.414 42.3421 225.81 41.4061C226.242 40.4701 226.458 39.3901 226.458 38.1661C226.458 35.5381 225.81 33.6481 224.514 32.4961C223.218 31.3081 221.13 30.7141 218.25 30.7141H214.416C213.768 30.7141 213.444 31.0201 213.444 31.6321V45.5101Z" fill="#F8F1E8"/>
<path d="M443.169 22.7708C444.577 22.711 445.654 21.1606 445.576 19.3079C445.496 17.4554 444.291 16.0024 442.882 16.0624C441.474 16.1229 440.397 17.6729 440.476 19.5256C440.555 21.3782 441.76 22.8311 443.169 22.7708Z" fill="#A97761"/>
<path d="M439.588 27.2641C440.821 26.6223 441.136 24.7878 440.292 23.1652C439.448 21.5434 437.764 20.7486 436.531 21.3897C435.299 22.0317 434.983 23.8665 435.827 25.4887C436.671 27.1106 438.355 27.9054 439.588 27.2641Z" fill="#A97761"/>
<path d="M449.562 22.2826C450.959 22.4765 452.297 21.1444 452.551 19.3079C452.806 17.4705 451.88 15.8251 450.484 15.6313C449.088 15.438 447.75 16.7705 447.495 18.607C447.241 20.4441 448.166 22.0894 449.562 22.2826Z" fill="#A97761"/>
<path d="M456.575 21.9037C455.409 21.1484 453.657 21.7796 452.663 23.3141C451.669 24.8494 451.809 26.7056 452.976 27.4613C454.142 28.2166 455.894 27.5855 456.888 26.0506C457.881 24.5158 457.742 22.6594 456.575 21.9037Z" fill="#A97761"/>
<path d="M449.387 24.4057C448.849 23.5028 447.897 22.8712 446.771 22.8176C445.646 22.7642 444.638 23.3027 444.017 24.1501C443.331 25.0869 443.047 26.0572 442.389 26.7026C441.731 27.3479 439.127 27.3197 438.788 30.3914C438.549 32.5609 440.368 34.4229 442.548 34.5265C444.205 34.6052 445.271 34.077 446.234 34.1226C447.196 34.1682 448.208 34.7954 449.865 34.8741C452.045 34.9777 454.033 33.2971 454 31.1145C453.954 28.0244 451.359 27.8056 450.765 27.1008C450.172 26.396 449.98 25.4031 449.387 24.4057Z" fill="#A97761"/>
<path d="M490.668 153.41L489.04 156H486.746V142.532H489.854C490.693 146.035 491.901 148.625 493.48 150.302C495.059 151.93 497.106 152.744 499.622 152.744C501.447 152.744 502.853 152.374 503.84 151.634C504.876 150.845 505.394 149.784 505.394 148.452C505.394 147.515 505.123 146.627 504.58 145.788C504.037 144.9 503.174 144.012 501.99 143.124C500.855 142.187 499.375 141.225 497.55 140.238C495.083 138.857 493.061 137.525 491.482 136.242C489.953 134.91 488.818 133.529 488.078 132.098C487.387 130.667 487.042 129.113 487.042 127.436C487.042 125.216 487.56 123.243 488.596 121.516C489.681 119.789 491.137 118.433 492.962 117.446C494.787 116.459 496.835 115.966 499.104 115.966C500.633 115.966 502.163 116.188 503.692 116.632C505.221 117.076 506.529 117.693 507.614 118.482L508.946 116.706H510.87V127.88H507.984C506.849 125.068 505.665 123.045 504.432 121.812C503.248 120.579 501.793 119.962 500.066 119.962C498.685 119.962 497.575 120.332 496.736 121.072C495.947 121.812 495.552 122.799 495.552 124.032C495.552 125.413 496.169 126.721 497.402 127.954C498.635 129.187 500.633 130.544 503.396 132.024C506.06 133.455 508.206 134.861 509.834 136.242C511.511 137.623 512.72 139.054 513.46 140.534C514.2 142.014 514.57 143.642 514.57 145.418C514.57 148.822 513.337 151.56 510.87 153.632C508.453 155.704 505.197 156.74 501.102 156.74C498.981 156.74 497.007 156.469 495.182 155.926C493.357 155.334 491.852 154.495 490.668 153.41Z" fill="#F8F1E8"/>
<path d="M458.378 175.24C452.211 175.24 447.475 174.303 444.17 172.428C440.865 170.603 439.212 167.963 439.212 164.51C439.212 162.191 439.878 160.366 441.21 159.034C442.591 157.751 444.293 157.11 446.316 157.11C447.599 157.11 448.832 157.357 450.016 157.85C451.249 158.393 452.261 159.157 453.05 160.144C451.767 160.391 450.707 160.958 449.868 161.846C449.079 162.783 448.684 163.918 448.684 165.25C448.684 167.125 449.572 168.58 451.348 169.616C453.124 170.701 455.739 171.244 459.192 171.244C466.493 171.244 470.144 168.925 470.144 164.288C470.144 162.561 469.601 161.106 468.516 159.922C467.48 158.738 465.877 157.998 463.706 157.702L450.756 155.926C448.043 155.531 445.995 154.717 444.614 153.484C443.233 152.251 442.542 150.623 442.542 148.6C442.542 146.577 443.183 144.925 444.466 143.642C445.798 142.359 447.673 141.471 450.09 140.978V140.682C447.87 139.794 446.045 138.265 444.614 136.094C443.183 133.874 442.468 131.481 442.468 128.916C442.468 126.449 443.134 124.254 444.466 122.33C445.798 120.406 447.599 118.877 449.868 117.742C452.187 116.607 454.752 116.04 457.564 116.04C459.735 116.04 461.831 116.361 463.854 117.002C465.877 117.643 467.603 118.531 469.034 119.666C470.909 118.186 472.561 117.224 473.992 116.78C475.472 116.287 476.829 116.04 478.062 116.04C479.937 116.04 481.441 116.459 482.576 117.298C483.76 118.137 484.352 119.247 484.352 120.628C484.352 121.664 484.031 122.527 483.39 123.218C482.749 123.859 481.935 124.18 480.948 124.18C479.961 124.18 479.172 123.909 478.58 123.366C478.037 122.823 477.495 122.305 476.952 121.812C476.459 121.269 475.768 120.998 474.88 120.998C473.795 120.998 472.759 121.664 471.772 122.996C472.265 123.835 472.611 124.747 472.808 125.734C473.005 126.671 473.104 127.707 473.104 128.842C473.104 130.766 472.808 132.542 472.216 134.17C471.624 135.749 470.687 137.179 469.404 138.462C468.171 139.695 466.567 140.731 464.594 141.57C462.621 142.359 460.228 142.902 457.416 143.198C455.887 143.346 454.653 143.543 453.716 143.79C452.779 144.037 452.113 144.333 451.718 144.678C451.323 144.974 451.126 145.393 451.126 145.936C451.126 146.528 451.397 146.997 451.94 147.342C452.532 147.687 453.371 147.934 454.456 148.082L466.518 149.562C470.317 150.055 473.326 151.461 475.546 153.78C477.766 156.099 478.876 158.985 478.876 162.438C478.876 166.631 477.125 169.813 473.622 171.984C470.169 174.155 465.087 175.24 458.378 175.24ZM458.008 138.98C459.587 138.98 460.82 138.141 461.708 136.464C462.596 134.787 463.04 132.443 463.04 129.434C463.04 126.375 462.596 124.032 461.708 122.404C460.82 120.727 459.562 119.888 457.934 119.888C456.257 119.888 454.925 120.727 453.938 122.404C452.951 124.081 452.458 126.375 452.458 129.286C452.458 132.197 452.951 134.54 453.938 136.316C454.974 138.092 456.331 138.98 458.008 138.98Z" fill="#F8F1E8"/>
<path d="M402.836 133.726V143.938C402.836 146.602 402.96 148.551 403.206 149.784C403.453 151.017 404.02 151.831 404.908 152.226C405.846 152.621 407.301 152.892 409.274 153.04V156H385.964V153.04C387.888 152.892 389.319 152.645 390.256 152.3C391.194 151.905 391.81 151.116 392.106 149.932C392.402 148.748 392.55 146.923 392.55 144.456V135.206C392.55 132.295 392.501 129.952 392.402 128.176C392.304 126.351 392.18 125.117 392.032 124.476C391.736 123.193 391.169 122.355 390.33 121.96C389.492 121.565 387.938 121.368 385.668 121.368V118.852L399.95 116.04L400.912 122.552H401.208C402.836 120.529 404.76 118.951 406.98 117.816C409.25 116.632 411.692 116.04 414.306 116.04C417.464 116.04 420.004 116.484 421.928 117.372C423.902 118.211 425.653 119.641 427.182 121.664C428.021 122.799 428.761 124.279 429.402 126.104C430.044 127.88 430.364 130.347 430.364 133.504V143.938C430.364 146.602 430.488 148.551 430.734 149.784C430.981 151.017 431.548 151.831 432.436 152.226C433.374 152.621 434.78 152.892 436.654 153.04V156H413.492V153.04C415.466 152.941 416.896 152.695 417.784 152.3C418.722 151.905 419.338 151.116 419.634 149.932C419.93 148.699 420.078 146.873 420.078 144.456V134.392C420.078 129.36 419.437 125.857 418.154 123.884C416.921 121.861 414.701 120.85 411.494 120.85C409.916 120.85 408.559 121.294 407.424 122.182C406.29 123.07 405.303 124.303 404.464 125.882C404.168 126.474 403.897 127.189 403.65 128.028C403.404 128.867 403.206 129.779 403.058 130.766C402.91 131.703 402.836 132.69 402.836 133.726Z" fill="#F8F1E8"/>
<path d="M376.098 116.04V143.864C376.098 146.479 376.221 148.427 376.468 149.71C376.764 150.993 377.381 151.856 378.318 152.3C379.255 152.695 380.661 152.941 382.536 153.04V156H359.226V153.04C361.101 152.941 362.507 152.67 363.444 152.226C364.381 151.733 364.998 150.894 365.294 149.71C365.639 148.477 365.812 146.701 365.812 144.382V135.28C365.812 132.419 365.763 130.051 365.664 128.176C365.565 126.301 365.442 125.043 365.294 124.402C365.047 123.169 364.48 122.355 363.592 121.96C362.753 121.565 361.199 121.368 358.93 121.368V118.852L376.098 116.04ZM365.22 100.278C365.22 98.6993 365.763 97.3673 366.848 96.282C367.983 95.1473 369.364 94.58 370.992 94.58C372.571 94.58 373.903 95.1473 374.988 96.282C376.123 97.3673 376.69 98.6993 376.69 100.278C376.69 101.906 376.123 103.287 374.988 104.422C373.903 105.507 372.571 106.05 370.992 106.05C369.364 106.05 367.983 105.507 366.848 104.422C365.763 103.287 365.22 101.906 365.22 100.278Z" fill="#F8F1E8"/>
<path d="M349.053 94.58V143.864C349.053 146.479 349.177 148.427 349.423 149.71C349.719 150.993 350.336 151.856 351.273 152.3C352.211 152.695 353.617 152.941 355.491 153.04V156H332.181V153.04C334.056 152.941 335.462 152.67 336.399 152.226C337.337 151.733 337.953 150.894 338.249 149.71C338.595 148.477 338.767 146.701 338.767 144.382V113.82C338.767 110.959 338.718 108.591 338.619 106.716C338.521 104.841 338.397 103.583 338.249 102.942C338.003 101.709 337.435 100.895 336.547 100.5C335.709 100.105 334.155 99.908 331.885 99.908V97.392L349.053 94.58Z" fill="#F8F1E8"/>
<path d="M325.376 146.528L327.448 149.118C322.959 154.199 317.36 156.74 310.65 156.74C306.605 156.74 303.053 155.901 299.994 154.224C296.936 152.547 294.543 150.228 292.816 147.268C291.139 144.259 290.3 140.805 290.3 136.908C290.3 132.813 291.188 129.212 292.964 126.104C294.79 122.947 297.306 120.48 300.512 118.704C303.719 116.928 307.394 116.04 311.538 116.04C316.768 116.04 320.838 117.471 323.748 120.332C326.659 123.144 328.114 127.066 328.114 132.098C328.114 132.887 327.991 133.381 327.744 133.578C327.498 133.726 326.807 133.8 325.672 133.8H301.844C301.746 134.047 301.672 134.367 301.622 134.762C301.573 135.157 301.548 135.65 301.548 136.242C301.548 139.449 302.017 142.236 302.954 144.604C303.941 146.923 305.298 148.723 307.024 150.006C308.8 151.289 310.872 151.93 313.24 151.93C315.312 151.93 317.36 151.461 319.382 150.524C321.454 149.587 323.452 148.255 325.376 146.528ZM302.362 129.656H313.092C315.115 129.656 316.398 129.557 316.94 129.36C317.483 129.113 317.754 128.571 317.754 127.732C317.754 125.561 317.138 123.785 315.904 122.404C314.671 121.023 313.117 120.332 311.242 120.332C309.121 120.332 307.222 121.22 305.544 122.996C303.916 124.723 302.856 126.943 302.362 129.656Z" fill="#F8F1E8"/>
<path d="M282.089 146.528L284.161 149.118C279.672 154.199 274.072 156.74 267.363 156.74C263.318 156.74 259.766 155.901 256.707 154.224C253.649 152.547 251.256 150.228 249.529 147.268C247.852 144.259 247.013 140.805 247.013 136.908C247.013 132.813 247.901 129.212 249.677 126.104C251.503 122.947 254.019 120.48 257.225 118.704C260.432 116.928 264.107 116.04 268.251 116.04C273.48 116.04 277.551 117.471 280.461 120.332C283.372 123.144 284.827 127.066 284.827 132.098C284.827 132.887 284.704 133.381 284.457 133.578C284.211 133.726 283.52 133.8 282.385 133.8H258.557C258.459 134.047 258.385 134.367 258.335 134.762C258.286 135.157 258.261 135.65 258.261 136.242C258.261 139.449 258.73 142.236 259.667 144.604C260.654 146.923 262.011 148.723 263.737 150.006C265.513 151.289 267.585 151.93 269.953 151.93C272.025 151.93 274.073 151.461 276.095 150.524C278.167 149.587 280.165 148.255 282.089 146.528ZM259.075 129.656H269.805C271.828 129.656 273.111 129.557 273.653 129.36C274.196 129.113 274.467 128.571 274.467 127.732C274.467 125.561 273.851 123.785 272.617 122.404C271.384 121.023 269.83 120.332 267.955 120.332C265.834 120.332 263.935 121.22 262.257 122.996C260.629 124.723 259.568 126.943 259.075 129.656Z" fill="#F8F1E8"/>
<path d="M198.59 156V153.04C200.81 152.941 202.463 152.695 203.548 152.3C204.683 151.856 205.423 151.042 205.768 149.858C206.163 148.674 206.36 146.923 206.36 144.604V110.416C206.36 108.097 206.187 106.371 205.842 105.236C205.497 104.052 204.831 103.238 203.844 102.794C202.857 102.35 201.377 102.079 199.404 101.98V99.02H244.692L245.58 114.634H242.472C242.077 111.822 241.411 109.577 240.474 107.9C239.586 106.223 238.205 105.014 236.33 104.274C234.505 103.534 231.989 103.164 228.782 103.164H218.57C217.682 103.164 217.238 103.583 217.238 104.422V125.808C221.234 125.808 224.293 125.561 226.414 125.068C228.535 124.575 230.04 123.637 230.928 122.256C231.816 120.875 232.383 118.852 232.63 116.188H235.368V139.35H232.63C232.334 137.278 231.89 135.625 231.298 134.392C230.755 133.109 229.941 132.147 228.856 131.506C227.771 130.815 226.291 130.347 224.416 130.1C222.541 129.853 220.149 129.73 217.238 129.73V144.086C217.238 146.602 217.485 148.501 217.978 149.784C218.471 151.017 219.483 151.856 221.012 152.3C222.591 152.695 224.934 152.941 228.042 153.04V156H198.59Z" fill="#F8F1E8"/>
<path d="M362.479 100.649L371.33 109.5L380.181 100.649C381.223 99.6069 381.809 98.1934 381.809 96.7196V96.4703C381.809 93.5389 379.432 91.1625 376.501 91.1625C374.889 91.1625 373.364 91.8955 372.356 93.1546L371.33 94.437L370.304 93.1546C369.297 91.8955 367.772 91.1625 366.16 91.1625C363.228 91.1625 360.852 93.5389 360.852 96.4703V96.7196C360.852 98.1934 361.437 99.6069 362.479 100.649Z" fill="#A97761"/>
</svg>
