<svg width="163" height="175" viewBox="0 0 163 175" fill="none" xmlns="http://www.w3.org/2000/svg">
<path d="M99.411 123.641L111.133 128.031L115.523 116.309C116.04 114.928 115.987 113.399 115.377 112.058L115.273 111.831C114.059 109.163 110.912 107.984 108.244 109.199C106.776 109.867 105.692 111.165 105.296 112.729L104.894 114.321L103.429 113.579C101.99 112.85 100.299 112.814 98.8311 113.482C96.1629 114.697 94.9844 117.844 96.1987 120.512L96.3019 120.739C96.9124 122.08 98.0308 123.124 99.411 123.641Z" fill="#A97761"/>
<path d="M129.343 126.426C130.666 126.911 132.256 125.892 132.893 124.15C133.53 122.409 132.973 120.605 131.65 120.12C130.326 119.636 128.737 120.655 128.099 122.396C127.462 124.138 128.019 125.942 129.343 126.426Z" fill="#A97761"/>
<path d="M124.313 129.203C125.697 129.083 126.692 127.51 126.535 125.688C126.377 123.866 125.126 122.487 123.742 122.606C122.357 122.726 121.363 124.3 121.52 126.122C121.678 127.944 122.928 129.323 124.313 129.203Z" fill="#A97761"/>
<path d="M135.097 129.142C136.312 129.856 138.059 129.138 138.998 127.54C139.937 125.94 139.713 124.066 138.498 123.352C137.282 122.638 135.536 123.356 134.597 124.954C133.657 126.554 133.882 128.428 135.097 129.142Z" fill="#A97761"/>
<path d="M141.606 131.037C140.818 129.892 138.959 129.803 137.452 130.84C135.946 131.876 135.363 133.645 136.151 134.79C136.939 135.934 138.799 136.023 140.305 134.986C141.811 133.95 142.394 132.182 141.606 131.037Z" fill="#A97761"/>
<path d="M133.515 131.253C133.365 130.213 132.727 129.264 131.708 128.783C130.69 128.303 129.552 128.414 128.654 128.958C127.661 129.561 127.026 130.348 126.172 130.692C125.317 131.036 122.922 130.011 121.432 132.718C120.379 134.63 121.345 137.047 123.319 137.979C124.819 138.687 126.007 138.608 126.878 139.019C127.75 139.43 128.444 140.397 129.944 141.105C131.918 142.036 134.398 141.246 135.204 139.217C136.346 136.346 134.033 135.149 133.755 134.27C133.477 133.392 133.681 132.401 133.515 131.253Z" fill="#A97761"/>
<path fill-rule="evenodd" clip-rule="evenodd" d="M120.53 0L118.678 0.661376L107.829 6.61376L103.463 4.2328L100.155 2.91005L96.4505 1.85185L92.349 1.19048L87.3214 1.0582L83.3523 1.45503L79.5154 2.38095L75.9432 3.7037L69.9894 6.61376L62.0511 11.2434L22.8888 32.8042L13.4951 37.6984L9.39367 40.6085L6.87987 43.1217L4.23377 46.6931L1.71997 51.455L0.396916 55.6878L0 58.5979V61.3757L0.529221 64.9471L1.71997 68.9154L3.96916 73.9418L10.7167 85.7143L13.2305 90.873L14.0244 91.2699L34.0024 91.9312L36.2516 94.3122L37.0455 94.4445L37.707 93.5185L38.8977 90.0794L40.75 87.5661L44.0576 84.9206L47.4976 83.4656L49.8791 82.9365L52.7898 82.672L56.362 82.9365L59.8019 83.7302L64.9618 85.9788L66.1526 86.2434L66.0203 81.2169L66.4172 78.836L67.4756 75.7937L69.1956 72.8836L71.1802 70.6349L73.5617 68.6508L77.1339 66.4021L83.0877 63.2275L83.8815 63.8889L85.6015 67.5926L86.3953 68.1217H86.9245L88.5122 67.4603L91.1583 65.873L93.5398 67.5926L94.3336 67.8572H96.5828L99.3612 66.9312L104.521 64.0212L107.035 63.0952L107.3 63.6243L107.167 64.0212L105.315 65.3439V66.0053L108.358 71.8254L108.093 74.3386L105.976 83.4656L105.05 88.8889L104.918 93.5185L105.315 95.8995L105.712 96.8254L105.58 97.09H72.7679L72.3709 97.3545L71.974 98.2804L72.2386 99.4709L74.8847 99.6032L75.5463 100.132L75.6786 115.608L76.3401 124.206L77.5308 131.349L78.7216 135.847L80.3092 140.212L83.3523 146.164L86.7922 150.926L91.8198 155.952L94.3336 157.937L96.0536 158.862L96.8474 159.656V160.317L96.4505 160.582L93.8044 160.317L90.8937 159.524L87.7183 158.333L83.6169 156.217L80.0446 153.704L75.9432 149.735L72.2386 144.709L69.5925 139.683L67.6079 134.524L65.888 128.042L64.8295 121.693L64.168 113.492V105.291L64.8295 96.164L65.888 88.8889L63.5065 87.1693L61.3896 86.1111L58.7435 85.1852L55.1713 84.5238L50.5406 84.6561L47.1006 85.582L45.3807 86.3757L43.3961 87.6984L41.1469 89.9471L39.1623 93.254L34.267 110.317L30.2979 126.984L27.5195 141.27L25.5349 147.751L23.0211 152.646L20.375 156.217L17.4643 159.127L11.7752 163.492L9.12906 166.534L8.07062 168.783L7.6737 170.37L7.5414 173.677L7.93831 174.868L154.003 174.735L154.136 173.016L152.812 168.651L150.96 165.741L149.108 163.889L146.991 162.434L145.271 161.64L142.36 160.847L137.862 160.582L137.73 159.921L138.92 158.73L140.905 157.54L143.022 155.82L147.917 150.794L151.622 145.503L154.268 140.212L156.649 133.201L158.369 124.206L159.031 116.402L159.163 99.8677L159.428 99.6032L160.883 99.7355L161.942 99.4709L162.735 98.9418L162.868 98.2804L162.206 97.2222L143.022 97.3545L142.89 97.09L143.551 94.3122L143.948 91.1376V86.2434L142.89 81.4815L141.699 78.9683L140.508 77.2487L138.259 75L135.216 73.0159L131.776 71.2963L119.868 66.1376L118.942 65.0794L116.429 60.0529L116.032 59.9206L114.444 60.582H113.782L113.253 59.9206V58.9947L117.619 57.1429L120.133 55.1587L121.192 53.0423L120.927 50.1323L125.558 47.3545L122.912 42.4603L123.441 41.6667L125.425 40.0794L116.825 22.8836L128.468 16.4021L128.998 15.4762L120.53 0ZM77.7954 99.7355L156.649 99.6032L156.914 99.8677L156.782 113.228L156.252 121.429L155.459 127.513L154.136 133.466L153.077 136.773L151.622 140.344L149.24 144.709L146.065 149.074L141.567 153.704L137.994 156.614L135.745 157.937L135.613 160.582H99.3612L99.2289 158.069L93.9367 154.497L89.7029 150.397L87.8506 148.148L84.543 143.122L81.8969 137.434L80.0446 131.217L78.8539 124.074L78.3247 117.196L77.7954 99.7355ZM10.0552 171.296L10.7167 168.783L11.7752 167.064L14.1567 164.683L19.5812 160.582L22.095 158.069L25.5349 153.439L27.6518 149.339L29.2394 144.974L30.2979 141.005L33.3409 124.735L36.7808 110.053L40.2208 98.1482L42.3377 92.9894L44.8515 89.9471L48.0268 87.963L51.7313 87.037H54.7743L59.405 88.0952L63.1096 89.9471L61.7865 102.116L61.5219 112.434L62.0511 120.635L63.5065 129.365L65.7557 136.905L68.931 143.915L72.5032 149.471L74.2232 151.587L77.6631 155.026L82.0292 158.333L86.1307 160.582L89.5706 161.905L93.6721 162.831L104.786 163.36L123.308 162.831H137.862L142.36 163.36L145.536 164.418L147.653 165.741L149.373 167.46L150.431 169.048L151.489 171.561V172.355L10.1875 172.487L10.0552 171.296ZM122.25 16.4021V16.6667L121.192 17.5926L44.9838 58.2011L26.0641 68.6508L19.4489 71.9577L18.655 71.8254L12.3044 59.6561L10.0552 53.0423L9.39367 49.3386V45.7672L10.3198 43.254L12.4367 41.1376L16.1412 38.8889L22.4919 35.7143L61.7865 13.7566L74.6201 7.01058L79.1185 5.15873L83.3523 3.96825L85.7338 3.57143L91.2906 3.43915L93.5398 3.7037L97.112 4.49735L100.949 5.82011L107.696 9.25926L111.004 7.80423L115.502 5.15873L116.164 5.02646L122.25 16.4021ZM122.25 39.0212L122.118 39.6825L121.192 40.3439L75.1493 64.5503L72.3709 66.2699L70.5187 67.7249L68.2695 69.9736L65.888 73.2804L64.168 77.381L63.6388 80.0265L63.5065 82.2751L58.082 80.6878L55.1713 80.291H51.4667L47.3653 80.9524L44.3222 82.0106L40.75 84.127L38.6331 86.1111L36.5162 89.5503L35.8547 90.0794L33.7378 87.5661L31.224 85.4497L28.8425 84.127L24.8734 82.5397L24.2118 81.8783V81.4815L24.6088 81.0847L29.7687 78.7037L48.6883 68.5185H49.3498L50.6729 69.3122L51.7313 69.5767H53.5836L55.3036 68.9154L55.9651 68.3863L56.8912 66.9312L57.4205 64.1535L58.8758 62.963L117.884 31.4815L118.678 32.0106L121.588 38.0952L122.25 39.0212ZM114.841 24.4709L116.825 28.4392V29.6296L72.2386 52.9101L56.4943 61.7725L55.8328 61.5079L54.642 60.4497L53.319 59.9206L51.8636 59.7884L50.1437 60.3175L48.8206 61.3757L47.8945 62.963L47.6299 63.8889L47.7622 65.873L47.3653 66.4021L23.418 79.3651L22.6242 79.2328L20.2427 74.4709L20.6396 73.8095L25.7995 71.4286L112.459 24.7355L114.047 23.9418L114.841 24.4709ZM17.8612 166.534V167.725L18.1258 168.122L24.0795 168.254H130.982L126.748 166.138H56.0974L50.5406 164.947L46.9683 163.492L44.5868 161.905L42.8669 160.185L41.5438 158.333L39.8239 154.233L39.03 150.529L38.2362 140.608L38.5008 132.672L39.6916 123.677L40.8823 118.254L41.8084 115.344V114.815L39.9562 114.55L34.664 143.254L33.6055 147.09L32.4148 150.132L30.1656 154.365L27.1226 158.466L23.5503 162.037L20.7719 164.286L18.1258 166.005L17.8612 166.534ZM6.87987 47.4868L7.14448 47.7513V50.1323L7.80601 54.2328L9.79058 60.1852L12.3044 65.3439L17.9935 75.1323L21.4334 82.0106L23.2857 84.3915L28.9748 86.6402L31.8856 89.0212L31.6209 89.418L25.0057 89.1535L23.6826 88.8889L16.0089 89.0212L14.8182 88.4921L12.1721 83.3333L7.40909 75.5291L5.42451 71.8254L3.96916 68.3863L2.77841 63.8889L2.5138 59.6561L3.04302 55.8201L4.49838 51.455L5.68912 49.0741L6.87987 47.4868ZM150.96 105.688L150.563 105.423H149.24L148.579 105.688L148.446 116.667L148.05 121.958L147.388 126.72L146.594 130.423L145.139 135.053L141.963 141.534L138.524 146.164L135.348 149.206L132.438 151.323L127.013 153.968L123.308 155.026L119.736 155.556H114.973L112.062 155.159L108.887 154.365L105.447 153.042L102.272 151.323L99.3612 149.206L96.3182 146.296L94.4659 144.048L92.6136 141.27L90.6291 137.434L88.5122 131.482L87.3214 126.058L86.5276 119.577L86.1307 111.905L86.263 105.82L83.8815 105.688L84.0138 116.667L84.4107 121.825L85.2045 127.513L86.3953 132.672L87.4537 135.979L88.6445 138.889L90.8937 143.122L94.3336 147.751L98.5674 151.72L102.933 154.497L108.623 156.746L114.312 157.804L118.545 157.937L121.588 157.672L127.41 156.349L130.718 155.026L133.231 153.704L137.465 150.661L141.567 146.296L144.742 141.534L147.388 135.714L149.108 129.894L150.431 122.09L151.093 112.037L150.96 105.688ZM47.6299 166.005L22.095 166.138L21.9627 165.741L26.7256 162.302L30.5625 157.937L32.6794 154.63L34.9286 149.735L36.1193 145.635L36.5162 145.238L36.9131 150L37.5747 154.101L38.2362 156.482L39.2946 158.995L40.3531 160.714L42.3377 162.831L47.6299 166.005ZM101.346 12.5661L98.832 10.582L96.3182 9.39154L93.2752 8.46561L89.8352 7.93651H85.4692L81.8969 8.59789L77.5308 10.3175L70.5187 13.8889L47.4976 26.8519L37.9716 31.746L37.4424 32.4074V33.2011L38.1039 33.8624H39.1623L62.845 21.164L74.6201 14.2857L78.8539 12.3016L81.7646 11.2434L85.8661 10.3175L90.0998 10.1852L92.7459 10.582L94.9951 11.2434L98.1704 12.6984L99.7581 13.8889L100.684 13.7566L101.346 12.963V12.5661ZM121.059 43.6508L122.515 46.4286L122.25 46.8254L87.3214 65.0794L85.7338 62.6984L85.4692 61.9048L86.1307 61.3757L120.662 43.254L121.059 43.6508ZM114.576 70.3704L116.164 71.8254L122.647 80.5556L126.351 86.3757L129.659 93.254L130.718 96.4286V97.3545H125.822L124.499 95.8995L122.912 93.3863L120.133 87.5661L116.958 79.4974L114.444 71.2963L114.576 70.3704ZM117.487 69.3122L120.398 71.164L127.278 76.455L130.718 79.3651L133.231 82.1429L134.951 85.1852L136.01 88.8889L136.407 92.328V96.6931L136.142 97.2222L133.893 97.3545L133.231 96.9577L130.982 90.4762L128.865 86.2434L125.028 80.291L119.736 73.1482L117.355 69.5767L117.487 69.3122ZM121.456 69.0476L135.348 75.5291L136.804 76.5873L139.45 79.4974L141.17 83.0688L141.963 87.3016L141.831 91.799L141.037 96.5609L140.64 97.3545L138.524 97.2222L138.391 91.1376L137.862 87.1693L136.671 83.4656L135.216 81.0847L132.173 77.7778L122.118 70.1058L121.324 69.3122L121.456 69.0476ZM112.459 72.2222L118.281 88.6243L122.647 97.09L122.515 97.3545H116.429L115.502 96.2963L114.312 94.1799L113.253 90.873L112.592 86.3757L112.195 79.2328V73.4127L112.459 72.2222ZM109.946 76.0582L110.343 76.5873L110.475 77.7778V84.5238L110.872 90.0794L111.533 93.1217L113.386 97.09L113.253 97.3545H111.136L108.226 96.9577L107.829 96.2963L107.167 93.5185V89.5503L107.432 87.5661L109.946 76.0582ZM118.81 51.5873L118.678 53.1746L117.487 54.4974L112.856 56.746L102.14 62.8307L97.3766 65.2116L96.0536 65.6085L94.4659 65.3439L93.8044 64.8148L94.5982 64.1535L118.413 51.455L118.81 51.5873ZM115.37 62.8307L117.355 66.5344L110.21 70.1058L108.623 67.1958V66.2699L112.327 64.0212L114.444 62.963L115.37 62.8307ZM49.8791 99.3386L48.9529 99.7355L47.8945 101.19L47.7622 102.91L48.0268 103.836L48.6883 104.894L49.6144 105.556L50.5406 105.82L52.5252 105.556L53.1867 105.159L53.9805 104.101L54.2451 103.175L53.9805 101.19L53.5836 100.529L52.2606 99.4709L51.2021 99.2064L49.8791 99.3386ZM118.81 3.1746L119.736 3.04233L125.955 14.8148L125.822 15.0794L124.764 15.4762L123.705 14.0212L118.413 3.83598L118.81 3.1746ZM51.3344 62.4339H53.0544L54.2451 63.4921L54.5097 64.0212V65.873L53.4513 67.0635L52.2606 67.1958L51.3344 66.9312L50.5406 66.2699L50.1437 65.4762L50.276 63.4921L51.3344 62.4339ZM133.364 166.27V168.254H139.317L139.185 166.138L133.364 166.27ZM111.533 61.1111L111.666 61.5079L110.872 62.3016L109.813 62.6984H109.284L109.019 62.4339L109.152 61.6402L109.946 60.8466L110.739 60.582L111.533 61.1111ZM50.9375 101.323H51.4667L51.7313 101.587L51.9959 102.513L51.8636 103.175L51.2021 103.571L50.5406 103.439L50.0114 102.778L50.1437 101.852L50.9375 101.323Z" fill="#F8F1E8"/>
</svg>
