<svg width="316" height="160" viewBox="0 0 316 160" fill="none" xmlns="http://www.w3.org/2000/svg">
<path d="M291.076 37.1317V44.3137C291.076 46.2577 291.166 47.6977 291.346 48.6337C291.526 49.5337 291.94 50.1277 292.588 50.4157C293.272 50.7037 294.334 50.9017 295.774 51.0097V53.1697H278.764V51.0097C280.24 50.9017 281.302 50.7037 281.95 50.4157C282.634 50.1277 283.066 49.5517 283.246 48.6877C283.462 47.8237 283.57 46.4917 283.57 44.6917V22.4977C283.57 18.4297 283.444 15.7657 283.192 14.5057C283.012 13.5697 282.634 12.9937 282.058 12.7777C281.482 12.5257 280.438 12.3997 278.926 12.3997V10.4017L290.968 8.34972V28.2757H291.184C292.3 26.7997 293.542 25.7197 294.91 25.0357C296.314 24.3517 298.006 24.0097 299.986 24.0097C301.786 24.0097 303.37 24.2977 304.738 24.8737C306.142 25.4137 307.33 26.2597 308.302 27.4117C309.238 28.5277 309.94 29.8417 310.408 31.3537C310.912 32.8297 311.164 34.3597 311.164 35.9437V44.3137C311.164 46.2937 311.254 47.7517 311.434 48.6877C311.614 49.5877 312.028 50.1817 312.676 50.4697C313.324 50.7217 314.35 50.9017 315.754 51.0097V53.1697H298.852V51.0097C300.292 50.9377 301.354 50.7577 302.038 50.4697C302.722 50.1817 303.154 49.6057 303.334 48.7417C303.55 47.8417 303.658 46.4917 303.658 44.6917V38.0497C303.658 34.1977 303.244 31.4977 302.416 29.9497C301.588 28.3657 300.166 27.5737 298.15 27.5737C297.034 27.5737 296.062 27.7717 295.234 28.1677C294.406 28.5637 293.686 29.1397 293.074 29.8957C292.39 30.7597 291.886 31.8217 291.562 33.0817C291.238 34.3057 291.076 35.6557 291.076 37.1317Z" fill="#F8F1E8"/>
<path d="M262.573 27.5197H258.631V25.0897C260.755 24.4777 262.555 23.5417 264.031 22.2817C265.507 21.0217 266.605 19.5997 267.325 18.0157H270.079V24.5497H276.289V27.5197H270.079V44.0977C270.079 46.2937 270.331 47.8777 270.835 48.8497C271.339 49.7857 272.149 50.2537 273.265 50.2537C273.985 50.2537 274.597 50.1097 275.101 49.8217C275.641 49.4977 276.091 48.9937 276.451 48.3097L277.585 49.8757C276.577 52.4317 274.201 53.7097 270.457 53.7097C267.973 53.7097 266.029 53.1337 264.625 51.9817C263.257 50.8297 262.573 49.2097 262.573 47.1217V27.5197Z" fill="#F8F1E8"/>
<path d="M251.647 24.0097V44.3137C251.647 46.2217 251.737 47.6437 251.917 48.5797C252.133 49.5157 252.583 50.1457 253.267 50.4697C253.951 50.7577 254.977 50.9377 256.345 51.0097V53.1697H239.335V51.0097C240.703 50.9377 241.729 50.7397 242.413 50.4157C243.097 50.0557 243.547 49.4437 243.763 48.5797C244.015 47.6797 244.141 46.3837 244.141 44.6917V38.0497C244.141 35.9617 244.105 34.2337 244.033 32.8657C243.961 31.4977 243.871 30.5797 243.763 30.1117C243.583 29.2117 243.169 28.6177 242.521 28.3297C241.909 28.0417 240.775 27.8977 239.119 27.8977V26.0617L251.647 24.0097ZM243.709 12.5077C243.709 11.3557 244.105 10.3837 244.897 9.59172C245.725 8.76372 246.733 8.34972 247.921 8.34972C249.073 8.34972 250.045 8.76372 250.837 9.59172C251.665 10.3837 252.079 11.3557 252.079 12.5077C252.079 13.6957 251.665 14.7037 250.837 15.5317C250.045 16.3237 249.073 16.7197 247.921 16.7197C246.733 16.7197 245.725 16.3237 244.897 15.5317C244.105 14.7037 243.709 13.6957 243.709 12.5077Z" fill="#F8F1E8"/>
<path d="M202.528 53.7097L195.13 31.5157C194.77 30.3637 194.356 29.4457 193.888 28.7617C193.42 28.0777 192.88 27.5737 192.268 27.2497C191.656 26.9257 190.936 26.7457 190.108 26.7097V24.5497H205.552V26.7097C204.256 26.7457 203.356 26.9437 202.852 27.3037C202.348 27.6277 202.096 28.2037 202.096 29.0317C202.096 29.3917 202.15 29.8237 202.258 30.3277C202.402 30.7957 202.546 31.3357 202.69 31.9477L206.092 44.5837H206.308L213.868 24.5497H218.296L223.966 44.5837H224.236L228.556 33.4057C228.808 32.7937 228.988 32.2537 229.096 31.7857C229.24 31.2817 229.348 30.8317 229.42 30.4357C229.492 30.0037 229.528 29.6257 229.528 29.3017C229.528 28.3657 229.222 27.6997 228.61 27.3037C227.998 26.9077 227.17 26.7097 226.126 26.7097V24.5497H237.736V26.7097C237.088 26.7097 236.548 26.7817 236.116 26.9257C235.684 27.0697 235.252 27.4117 234.82 27.9517C234.424 28.4917 233.956 29.3197 233.416 30.4357C232.912 31.5517 232.282 33.0817 231.526 35.0257L224.074 53.7097H219.808L214.084 34.5397H213.868L206.578 53.7097H202.528Z" fill="#F8F1E8"/>
<path d="M155.512 53.7097C152.776 53.7097 150.346 53.0977 148.222 51.8737C146.134 50.6137 144.496 48.8857 143.308 46.6897C142.12 44.4577 141.526 41.9197 141.526 39.0757C141.526 36.1957 142.12 33.6217 143.308 31.3537C144.496 29.0857 146.116 27.3037 148.168 26.0077C150.256 24.6757 152.596 24.0097 155.188 24.0097C156.988 24.0097 158.59 24.2797 159.994 24.8197C161.398 25.3597 162.604 26.2777 163.612 27.5737H163.828V22.9837C163.828 20.8597 163.792 19.0417 163.72 17.5297C163.684 15.9817 163.612 14.9737 163.504 14.5057C163.36 13.7497 162.82 13.2097 161.884 12.8857C160.948 12.5257 159.526 12.3457 157.618 12.3457V10.5097L171.28 8.34972V39.2377C171.28 41.9017 171.298 43.9717 171.334 45.4477C171.406 46.9237 171.514 48.0397 171.658 48.7957C171.838 49.7317 172.162 50.3437 172.63 50.6317C173.098 50.8837 174.106 51.0097 175.654 51.0097V53.1157L165.394 53.7097V49.7137H165.178C163.954 51.0457 162.514 52.0537 160.858 52.7377C159.238 53.3857 157.456 53.7097 155.512 53.7097ZM163.72 39.7777V37.6717C163.72 36.3037 163.576 35.0437 163.288 33.8917C163 32.7037 162.568 31.6597 161.992 30.7597C161.344 29.7157 160.516 28.9237 159.508 28.3837C158.5 27.8437 157.42 27.5737 156.268 27.5737C154.18 27.5737 152.56 28.5637 151.408 30.5437C150.292 32.4877 149.734 35.2957 149.734 38.9677C149.734 42.6757 150.292 45.5557 151.408 47.6077C152.524 49.6237 154.126 50.6317 156.214 50.6317C157.402 50.6317 158.536 50.3257 159.616 49.7137C160.696 49.1017 161.578 48.2737 162.262 47.2297C162.766 46.4377 163.126 45.4657 163.342 44.3137C163.594 43.1257 163.72 41.6137 163.72 39.7777Z" fill="#F8F1E8"/>
<path d="M135.48 46.2577L136.992 48.1477C133.716 51.8557 129.63 53.7097 124.734 53.7097C121.782 53.7097 119.19 53.0977 116.958 51.8737C114.726 50.6497 112.98 48.9577 111.72 46.7977C110.496 44.6017 109.884 42.0817 109.884 39.2377C109.884 36.2497 110.532 33.6217 111.828 31.3537C113.16 29.0497 114.996 27.2497 117.336 25.9537C119.676 24.6577 122.358 24.0097 125.382 24.0097C129.198 24.0097 132.168 25.0537 134.292 27.1417C136.416 29.1937 137.478 32.0557 137.478 35.7277C137.478 36.3037 137.388 36.6637 137.208 36.8077C137.028 36.9157 136.524 36.9697 135.696 36.9697H118.308C118.236 37.1497 118.182 37.3837 118.146 37.6717C118.11 37.9597 118.092 38.3197 118.092 38.7517C118.092 41.0917 118.434 43.1257 119.118 44.8537C119.838 46.5457 120.828 47.8597 122.088 48.7957C123.384 49.7317 124.896 50.1997 126.624 50.1997C128.136 50.1997 129.63 49.8577 131.106 49.1737C132.618 48.4897 134.076 47.5177 135.48 46.2577ZM118.686 33.9457H126.516C127.992 33.9457 128.928 33.8737 129.324 33.7297C129.72 33.5497 129.918 33.1537 129.918 32.5417C129.918 30.9577 129.468 29.6617 128.568 28.6537C127.668 27.6457 126.534 27.1417 125.166 27.1417C123.618 27.1417 122.232 27.7897 121.008 29.0857C119.82 30.3457 119.046 31.9657 118.686 33.9457Z" fill="#F8F1E8"/>
<path d="M74.3131 53.1697V51.0097C75.6451 50.9737 76.6531 50.7937 77.3371 50.4697C78.0211 50.1097 78.4891 49.4797 78.7411 48.5797C78.9931 47.6797 79.1191 46.3837 79.1191 44.6917V21.7957C79.1191 19.4197 79.0651 17.5117 78.9571 16.0717C78.8851 14.6317 78.5431 13.6417 77.9311 13.1017C77.5711 12.7777 77.1031 12.5797 76.5271 12.5077C75.9871 12.4357 75.3031 12.3997 74.4751 12.3997V10.4017L86.5171 8.34972V38.3737L91.7011 33.4597C93.5731 31.6957 94.9051 30.3637 95.6971 29.4637C96.4891 28.5637 96.8851 27.9337 96.8851 27.5737C96.8851 27.2497 96.5431 27.0337 95.8591 26.9257C95.2111 26.7817 93.9871 26.7097 92.1871 26.7097V24.5497H106.929V26.7097C106.029 26.7097 105.201 26.8177 104.445 27.0337C103.689 27.2137 102.951 27.5377 102.231 28.0057C101.511 28.4377 100.737 29.0497 99.9091 29.8417L94.6711 34.7557L104.013 47.9857C104.589 48.7417 105.129 49.3537 105.633 49.8217C106.137 50.2537 106.695 50.5597 107.307 50.7397C107.955 50.9197 108.711 51.0097 109.575 51.0097V53.1697H92.7811V51.0097C93.9331 51.0097 94.7431 50.9737 95.2111 50.9017C95.6791 50.7937 95.9131 50.6137 95.9131 50.3617C95.9131 50.1097 95.7151 49.6237 95.3191 48.9037C94.9231 48.1837 94.2571 47.1397 93.3211 45.7717L89.2171 39.6157L86.5171 42.2077V44.3137C86.5171 46.1857 86.6071 47.6077 86.7871 48.5797C87.0031 49.5157 87.3811 50.1637 87.9211 50.5237C88.4611 50.8477 89.2351 51.0097 90.2431 51.0097V53.1697H74.3131Z" fill="#F8F1E8"/>
<path d="M66.9033 53.7097C65.2473 53.7097 63.9693 53.2237 63.0693 52.2517C62.2053 51.2437 61.7733 49.8037 61.7733 47.9317H61.5033C60.5312 49.7317 59.1993 51.1357 57.5073 52.1437C55.8153 53.1517 53.9613 53.6557 51.9453 53.6557C50.2893 53.6557 48.8852 53.3497 47.7332 52.7377C46.5812 52.0897 45.7173 51.2617 45.1413 50.2537C44.5653 49.2457 44.2772 48.1657 44.2772 47.0137C44.2772 45.2497 44.9972 43.6837 46.4372 42.3157C47.9132 40.9117 50.2532 39.5257 53.4572 38.1577L61.0173 34.9177V32.6497C61.0173 30.5977 60.6393 29.0857 59.8833 28.1137C59.1633 27.1417 58.0473 26.6557 56.5353 26.6557C55.4913 26.6557 54.6993 26.9257 54.1593 27.4657C53.6193 27.9697 53.0973 28.9057 52.5933 30.2737C52.3053 31.1017 51.8553 31.7857 51.2433 32.3257C50.6313 32.8657 49.8213 33.1357 48.8133 33.1357C47.8053 33.1357 47.0132 32.8477 46.4372 32.2717C45.8972 31.6597 45.6273 30.8497 45.6273 29.8417C45.6273 28.0057 46.5813 26.5837 48.4893 25.5757C50.3973 24.5317 53.2053 24.0097 56.9132 24.0097C61.0173 24.0097 63.9333 24.7297 65.6613 26.1697C67.3893 27.6097 68.2533 30.0577 68.2533 33.5137V45.3397C68.2533 46.9237 68.3973 48.0937 68.6853 48.8497C69.0093 49.5697 69.5133 49.9297 70.1973 49.9297C70.4853 49.9297 70.7733 49.8757 71.0613 49.7677C71.3853 49.6597 71.6913 49.4797 71.9793 49.2277L72.7893 50.7937C72.3213 51.6577 71.5473 52.3597 70.4673 52.8997C69.3873 53.4397 68.1993 53.7097 66.9033 53.7097ZM55.2933 48.6337C56.3013 48.6337 57.2372 48.3817 58.1012 47.8777C58.9652 47.3737 59.6673 46.6897 60.2073 45.8257C60.7473 44.9257 61.0173 43.9537 61.0173 42.9097V37.7797C58.7493 38.8597 56.9493 39.8137 55.6173 40.6417C54.2853 41.4697 53.3312 42.2617 52.7552 43.0177C52.1792 43.7737 51.8913 44.5837 51.8913 45.4477C51.8913 46.4197 52.1973 47.1937 52.8092 47.7697C53.4213 48.3457 54.2493 48.6337 55.2933 48.6337Z" fill="#F8F1E8"/>
<path d="M1.192 53.1697V51.0097C2.812 50.9377 4.018 50.7577 4.81 50.4697C5.638 50.1457 6.196 49.5517 6.484 48.6877C6.772 47.8237 6.916 46.5457 6.916 44.8537V19.9057C6.916 18.2137 6.808 16.9537 6.592 16.1257C6.376 15.2617 5.926 14.6677 5.242 14.3437C4.594 14.0197 3.622 13.8217 2.326 13.7497V11.5897H19.66C25.06 11.5897 29.236 12.4717 32.188 14.2357C35.14 15.9997 36.616 18.4837 36.616 21.6877C36.616 23.8477 35.842 25.6837 34.294 27.1957C32.782 28.6717 30.478 29.8597 27.382 30.7597V30.9757C30.046 30.9757 32.332 31.4617 34.24 32.4337C36.184 33.4057 37.678 34.7377 38.722 36.4297C39.802 38.1217 40.342 40.0477 40.342 42.2077C40.342 44.0437 39.892 45.6457 38.992 47.0137C38.128 48.3817 36.868 49.5337 35.212 50.4697C33.628 51.3697 31.72 52.0537 29.488 52.5217C27.256 52.9537 24.754 53.1697 21.982 53.1697H1.192ZM22.36 49.8757C28.156 49.8757 31.054 47.2657 31.054 42.0457C31.054 40.4617 30.802 39.0937 30.298 37.9417C29.794 36.7537 29.002 35.7817 27.922 35.0257C26.842 34.2697 25.438 33.7297 23.71 33.4057C21.982 33.0817 19.894 32.9197 17.446 32.9197H14.854V43.7197C14.854 45.9157 15.43 47.4997 16.582 48.4717C17.734 49.4077 19.66 49.8757 22.36 49.8757ZM14.854 29.6797H18.04C19.66 29.6797 21.064 29.5357 22.252 29.2477C23.476 28.9237 24.484 28.4737 25.276 27.8977C26.176 27.2857 26.824 26.5117 27.22 25.5757C27.652 24.6397 27.868 23.5597 27.868 22.3357C27.868 19.7077 27.22 17.8177 25.924 16.6657C24.628 15.4777 22.54 14.8837 19.66 14.8837H15.826C15.178 14.8837 14.854 15.1897 14.854 15.8017V29.6797Z" fill="#F8F1E8"/>
<path d="M244.579 6.94042C245.987 6.88063 247.064 5.33028 246.986 3.4776C246.906 1.62503 245.701 0.172082 244.292 0.232065C242.884 0.292589 241.807 1.8426 241.886 3.69526C241.965 5.54785 243.17 7.0008 244.579 6.94042Z" fill="#A97761"/>
<path d="M240.998 11.4337C242.231 10.792 242.546 8.95746 241.702 7.33488C240.858 5.71301 239.174 4.91826 237.941 5.55935C236.709 6.20136 236.393 8.03616 237.237 9.65841C238.081 11.2803 239.765 12.0751 240.998 11.4337Z" fill="#A97761"/>
<path d="M250.976 6.66986C252.373 6.86374 253.71 5.53171 253.965 3.69522C254.219 1.85775 253.294 0.212355 251.898 0.018582C250.502 -0.17469 249.163 1.15779 248.909 2.99422C248.655 4.83138 249.58 6.47663 250.976 6.66986Z" fill="#A97761"/>
<path d="M258.532 5.53005C257.365 4.77478 255.614 5.40591 254.62 6.94042C253.625 8.47569 253.765 10.332 254.932 11.0876C256.098 11.8429 257.85 11.2118 258.844 9.67695C259.838 8.14218 259.698 6.28577 258.532 5.53005Z" fill="#A97761"/>
<path d="M250.886 8.48313C250.349 7.58025 249.397 6.94867 248.271 6.89503C247.146 6.84162 246.138 7.38013 245.517 8.22749C244.831 9.16437 244.547 10.1346 243.889 10.78C243.231 11.4253 240.627 11.3971 240.288 14.4688C240.049 16.6383 241.868 18.5003 244.048 18.6039C245.705 18.6826 246.771 18.1545 247.734 18.2C248.696 18.2456 249.708 18.8728 251.365 18.9515C253.545 19.0552 255.533 17.3745 255.5 15.1919C255.454 12.1019 252.859 11.883 252.265 11.1782C251.672 10.4734 251.48 9.48047 250.886 8.48313Z" fill="#A97761"/>
<path d="M292.078 137.58L290.45 140.17H288.156V126.702H291.264C292.103 130.204 293.311 132.794 294.89 134.472C296.469 136.1 298.516 136.914 301.032 136.914C302.857 136.914 304.263 136.544 305.25 135.804C306.286 135.014 306.804 133.954 306.804 132.622C306.804 131.684 306.533 130.796 305.99 129.958C305.447 129.07 304.584 128.182 303.4 127.294C302.265 126.356 300.785 125.394 298.96 124.408C296.493 123.026 294.471 121.694 292.892 120.412C291.363 119.08 290.228 117.698 289.488 116.268C288.797 114.837 288.452 113.283 288.452 111.606C288.452 109.386 288.97 107.412 290.006 105.686C291.091 103.959 292.547 102.602 294.372 101.616C296.197 100.629 298.245 100.136 300.514 100.136C302.043 100.136 303.573 100.358 305.102 100.802C306.631 101.246 307.939 101.862 309.024 102.652L310.356 100.876H312.28V112.05H309.394C308.259 109.238 307.075 107.215 305.842 105.982C304.658 104.748 303.203 104.132 301.476 104.132C300.095 104.132 298.985 104.502 298.146 105.242C297.357 105.982 296.962 106.968 296.962 108.202C296.962 109.583 297.579 110.89 298.812 112.124C300.045 113.357 302.043 114.714 304.806 116.194C307.47 117.624 309.616 119.03 311.244 120.412C312.921 121.793 314.13 123.224 314.87 124.704C315.61 126.184 315.98 127.812 315.98 129.588C315.98 132.992 314.747 135.73 312.28 137.802C309.863 139.874 306.607 140.91 302.512 140.91C300.391 140.91 298.417 140.638 296.592 140.096C294.767 139.504 293.262 138.665 292.078 137.58Z" fill="#F8F1E8"/>
<path d="M259.788 159.41C253.621 159.41 248.885 158.472 245.58 156.598C242.275 154.772 240.622 152.133 240.622 148.68C240.622 146.361 241.288 144.536 242.62 143.204C244.001 141.921 245.703 141.28 247.726 141.28C249.009 141.28 250.242 141.526 251.426 142.02C252.659 142.562 253.671 143.327 254.46 144.314C253.177 144.56 252.117 145.128 251.278 146.016C250.489 146.953 250.094 148.088 250.094 149.42C250.094 151.294 250.982 152.75 252.758 153.786C254.534 154.871 257.149 155.414 260.602 155.414C267.903 155.414 271.554 153.095 271.554 148.458C271.554 146.731 271.011 145.276 269.926 144.092C268.89 142.908 267.287 142.168 265.116 141.872L252.166 140.096C249.453 139.701 247.405 138.887 246.024 137.654C244.643 136.42 243.952 134.792 243.952 132.77C243.952 130.747 244.593 129.094 245.876 127.812C247.208 126.529 249.083 125.641 251.5 125.148V124.852C249.28 123.964 247.455 122.434 246.024 120.264C244.593 118.044 243.878 115.651 243.878 113.086C243.878 110.619 244.544 108.424 245.876 106.5C247.208 104.576 249.009 103.046 251.278 101.912C253.597 100.777 256.162 100.21 258.974 100.21C261.145 100.21 263.241 100.53 265.264 101.172C267.287 101.813 269.013 102.701 270.444 103.836C272.319 102.356 273.971 101.394 275.402 100.95C276.882 100.456 278.239 100.21 279.472 100.21C281.347 100.21 282.851 100.629 283.986 101.468C285.17 102.306 285.762 103.416 285.762 104.798C285.762 105.834 285.441 106.697 284.8 107.388C284.159 108.029 283.345 108.35 282.358 108.35C281.371 108.35 280.582 108.078 279.99 107.536C279.447 106.993 278.905 106.475 278.362 105.982C277.869 105.439 277.178 105.168 276.29 105.168C275.205 105.168 274.169 105.834 273.182 107.166C273.675 108.004 274.021 108.917 274.218 109.904C274.415 110.841 274.514 111.877 274.514 113.012C274.514 114.936 274.218 116.712 273.626 118.34C273.034 119.918 272.097 121.349 270.814 122.632C269.581 123.865 267.977 124.901 266.004 125.74C264.031 126.529 261.638 127.072 258.826 127.368C257.297 127.516 256.063 127.713 255.126 127.96C254.189 128.206 253.523 128.502 253.128 128.848C252.733 129.144 252.536 129.563 252.536 130.106C252.536 130.698 252.807 131.166 253.35 131.512C253.942 131.857 254.781 132.104 255.866 132.252L267.928 133.732C271.727 134.225 274.736 135.631 276.956 137.95C279.176 140.268 280.286 143.154 280.286 146.608C280.286 150.801 278.535 153.983 275.032 156.154C271.579 158.324 266.497 159.41 259.788 159.41ZM259.418 123.15C260.997 123.15 262.23 122.311 263.118 120.634C264.006 118.956 264.45 116.613 264.45 113.604C264.45 110.545 264.006 108.202 263.118 106.574C262.23 104.896 260.972 104.058 259.344 104.058C257.667 104.058 256.335 104.896 255.348 106.574C254.361 108.251 253.868 110.545 253.868 113.456C253.868 116.366 254.361 118.71 255.348 120.486C256.384 122.262 257.741 123.15 259.418 123.15Z" fill="#F8F1E8"/>
<path d="M204.246 117.896V128.108C204.246 130.772 204.37 132.72 204.616 133.954C204.863 135.187 205.43 136.001 206.318 136.396C207.256 136.79 208.711 137.062 210.684 137.21V140.17H187.374V137.21C189.298 137.062 190.729 136.815 191.666 136.47C192.604 136.075 193.22 135.286 193.516 134.102C193.812 132.918 193.96 131.092 193.96 128.626V119.376C193.96 116.465 193.911 114.122 193.812 112.346C193.714 110.52 193.59 109.287 193.442 108.646C193.146 107.363 192.579 106.524 191.74 106.13C190.902 105.735 189.348 105.538 187.078 105.538V103.022L201.36 100.21L202.322 106.722H202.618C204.246 104.699 206.17 103.12 208.39 101.986C210.66 100.802 213.102 100.21 215.716 100.21C218.874 100.21 221.414 100.654 223.338 101.542C225.312 102.38 227.063 103.811 228.592 105.834C229.431 106.968 230.171 108.448 230.812 110.274C231.454 112.05 231.774 114.516 231.774 117.674V128.108C231.774 130.772 231.898 132.72 232.144 133.954C232.391 135.187 232.958 136.001 233.846 136.396C234.784 136.79 236.19 137.062 238.064 137.21V140.17H214.902V137.21C216.876 137.111 218.306 136.864 219.194 136.47C220.132 136.075 220.748 135.286 221.044 134.102C221.34 132.868 221.488 131.043 221.488 128.626V118.562C221.488 113.53 220.847 110.027 219.564 108.054C218.331 106.031 216.111 105.02 212.904 105.02C211.326 105.02 209.969 105.464 208.834 106.352C207.7 107.24 206.713 108.473 205.874 110.052C205.578 110.644 205.307 111.359 205.06 112.198C204.814 113.036 204.616 113.949 204.468 114.936C204.32 115.873 204.246 116.86 204.246 117.896Z" fill="#F8F1E8"/>
<path d="M177.508 100.21V128.034C177.508 130.648 177.631 132.597 177.878 133.88C178.174 135.162 178.791 136.026 179.728 136.47C180.665 136.864 182.071 137.111 183.946 137.21V140.17H160.636V137.21C162.511 137.111 163.917 136.84 164.854 136.396C165.791 135.902 166.408 135.064 166.704 133.88C167.049 132.646 167.222 130.87 167.222 128.552V119.45C167.222 116.588 167.173 114.22 167.074 112.346C166.975 110.471 166.852 109.213 166.704 108.572C166.457 107.338 165.89 106.524 165.002 106.13C164.163 105.735 162.609 105.538 160.34 105.538V103.022L177.508 100.21ZM166.63 84.4477C166.63 82.869 167.173 81.537 168.258 80.4517C169.393 79.317 170.774 78.7497 172.402 78.7497C173.981 78.7497 175.313 79.317 176.398 80.4517C177.533 81.537 178.1 82.869 178.1 84.4477C178.1 86.0757 177.533 87.457 176.398 88.5917C175.313 89.677 173.981 90.2197 172.402 90.2197C170.774 90.2197 169.393 89.677 168.258 88.5917C167.173 87.457 166.63 86.0757 166.63 84.4477Z" fill="#F8F1E8"/>
<path d="M150.463 78.7497V128.034C150.463 130.648 150.587 132.597 150.833 133.88C151.129 135.162 151.746 136.026 152.683 136.47C153.621 136.864 155.027 137.111 156.901 137.21V140.17H133.591V137.21C135.466 137.111 136.872 136.84 137.809 136.396C138.747 135.902 139.363 135.064 139.659 133.88C140.005 132.646 140.177 130.87 140.177 128.552V97.9897C140.177 95.1283 140.128 92.7603 140.029 90.8857C139.931 89.011 139.807 87.753 139.659 87.1117C139.413 85.8783 138.845 85.0643 137.957 84.6697C137.119 84.275 135.565 84.0777 133.295 84.0777V81.5617L150.463 78.7497Z" fill="#F8F1E8"/>
<path d="M126.786 130.698L128.858 133.288C124.369 138.369 118.77 140.91 112.06 140.91C108.015 140.91 104.463 140.071 101.404 138.394C98.3456 136.716 95.953 134.398 94.2263 131.438C92.549 128.428 91.7103 124.975 91.7103 121.078C91.7103 116.983 92.5983 113.382 94.3743 110.274C96.1996 107.116 98.7156 104.65 101.922 102.874C105.129 101.098 108.804 100.21 112.948 100.21C118.178 100.21 122.248 101.64 125.158 104.502C128.069 107.314 129.524 111.236 129.524 116.268C129.524 117.057 129.401 117.55 129.154 117.748C128.908 117.896 128.217 117.97 127.082 117.97H103.254C103.156 118.216 103.082 118.537 103.032 118.932C102.983 119.326 102.958 119.82 102.958 120.412C102.958 123.618 103.427 126.406 104.364 128.774C105.351 131.092 106.708 132.893 108.434 134.176C110.21 135.458 112.282 136.1 114.65 136.1C116.722 136.1 118.77 135.631 120.792 134.694C122.864 133.756 124.862 132.424 126.786 130.698ZM103.772 113.826H114.502C116.525 113.826 117.808 113.727 118.35 113.53C118.893 113.283 119.164 112.74 119.164 111.902C119.164 109.731 118.548 107.955 117.314 106.574C116.081 105.192 114.527 104.502 112.652 104.502C110.531 104.502 108.632 105.39 106.954 107.166C105.326 108.892 104.266 111.112 103.772 113.826Z" fill="#F8F1E8"/>
<path d="M83.4992 130.698L85.5712 133.288C81.0818 138.369 75.4825 140.91 68.7732 140.91C64.7278 140.91 61.1758 140.071 58.1172 138.394C55.0585 136.716 52.6658 134.398 50.9392 131.438C49.2618 128.428 48.4232 124.975 48.4232 121.078C48.4232 116.983 49.3112 113.382 51.0872 110.274C52.9125 107.116 55.4285 104.65 58.6352 102.874C61.8418 101.098 65.5172 100.21 69.6612 100.21C74.8905 100.21 78.9605 101.64 81.8712 104.502C84.7818 107.314 86.2372 111.236 86.2372 116.268C86.2372 117.057 86.1138 117.55 85.8672 117.748C85.6205 117.896 84.9298 117.97 83.7952 117.97H59.9672C59.8685 118.216 59.7945 118.537 59.7452 118.932C59.6958 119.326 59.6712 119.82 59.6712 120.412C59.6712 123.618 60.1398 126.406 61.0772 128.774C62.0638 131.092 63.4205 132.893 65.1472 134.176C66.9232 135.458 68.9952 136.1 71.3632 136.1C73.4352 136.1 75.4825 135.631 77.5052 134.694C79.5772 133.756 81.5752 132.424 83.4992 130.698ZM60.4852 113.826H71.2152C73.2378 113.826 74.5205 113.727 75.0632 113.53C75.6058 113.283 75.8772 112.74 75.8772 111.902C75.8772 109.731 75.2605 107.955 74.0272 106.574C72.7938 105.192 71.2398 104.502 69.3652 104.502C67.2438 104.502 65.3445 105.39 63.6672 107.166C62.0392 108.892 60.9785 111.112 60.4852 113.826Z" fill="#F8F1E8"/>
<path d="M0 140.17V137.21C2.22 137.111 3.87267 136.864 4.958 136.47C6.09267 136.026 6.83267 135.212 7.178 134.028C7.57267 132.844 7.77 131.092 7.77 128.774V94.5857C7.77 92.267 7.59733 90.5403 7.252 89.4057C6.90667 88.2217 6.24067 87.4077 5.254 86.9637C4.26733 86.5197 2.78733 86.2483 0.814 86.1497V83.1897H46.102L46.99 98.8037H43.882C43.4873 95.9917 42.8213 93.747 41.884 92.0697C40.996 90.3923 39.6147 89.1837 37.74 88.4436C35.9147 87.7036 33.3987 87.3337 30.192 87.3337H19.98C19.092 87.3337 18.648 87.753 18.648 88.5917V109.978C22.644 109.978 25.7027 109.731 27.824 109.238C29.9453 108.744 31.45 107.807 32.338 106.426C33.226 105.044 33.7933 103.022 34.04 100.358H36.778V123.52H34.04C33.744 121.448 33.3 119.795 32.708 118.562C32.1653 117.279 31.3513 116.317 30.266 115.676C29.1807 114.985 27.7007 114.516 25.826 114.27C23.9513 114.023 21.5587 113.9 18.648 113.9V128.256C18.648 130.772 18.8947 132.671 19.388 133.954C19.8813 135.187 20.8927 136.026 22.422 136.47C24.0007 136.864 26.344 137.111 29.452 137.21V140.17H0Z" fill="#F8F1E8"/>
<path d="M163.619 84.1733L172.47 93.0242L181.321 84.1733C182.363 83.1312 182.949 81.7177 182.949 80.2439V79.9946C182.949 77.0632 180.573 74.6867 177.641 74.6867C176.029 74.6867 174.504 75.4197 173.496 76.6788L172.47 77.9613L171.444 76.6788C170.437 75.4197 168.912 74.6867 167.3 74.6867C164.368 74.6867 161.992 77.0632 161.992 79.9946V80.2439C161.992 81.7177 162.577 83.1312 163.619 84.1733Z" fill="#A97761"/>
</svg>
