<svg width="510" height="176" viewBox="0 0 510 176" fill="none" xmlns="http://www.w3.org/2000/svg">
<path d="M99.411 123.641L111.133 128.031L115.523 116.309C116.04 114.928 115.987 113.399 115.377 112.058L115.273 111.831C114.059 109.163 110.912 107.984 108.244 109.199C106.776 109.867 105.692 111.165 105.296 112.729L104.894 114.321L103.429 113.579C101.99 112.85 100.299 112.814 98.8311 113.482C96.1629 114.697 94.9844 117.844 96.1987 120.512L96.3019 120.739C96.9124 122.08 98.0308 123.124 99.411 123.641Z" fill="#6D4C42"/>
<path d="M129.343 126.426C130.666 126.911 132.256 125.892 132.893 124.15C133.53 122.409 132.973 120.605 131.65 120.12C130.326 119.636 128.737 120.655 128.099 122.396C127.462 124.138 128.019 125.942 129.343 126.426Z" fill="#6D4C42"/>
<path d="M124.313 129.203C125.697 129.083 126.692 127.51 126.535 125.688C126.377 123.866 125.126 122.487 123.742 122.606C122.357 122.726 121.363 124.3 121.52 126.122C121.678 127.944 122.928 129.323 124.313 129.203Z" fill="#6D4C42"/>
<path d="M135.097 129.142C136.312 129.856 138.059 129.138 138.998 127.54C139.937 125.94 139.713 124.066 138.498 123.352C137.282 122.638 135.536 123.356 134.597 124.954C133.657 126.554 133.882 128.428 135.097 129.142Z" fill="#6D4C42"/>
<path d="M141.606 131.037C140.818 129.892 138.959 129.803 137.452 130.84C135.946 131.876 135.363 133.645 136.151 134.79C136.939 135.934 138.799 136.023 140.305 134.986C141.811 133.95 142.394 132.182 141.606 131.037Z" fill="#6D4C42"/>
<path d="M133.515 131.253C133.365 130.213 132.727 129.264 131.708 128.783C130.69 128.303 129.552 128.414 128.654 128.958C127.661 129.561 127.026 130.348 126.172 130.692C125.317 131.036 122.922 130.011 121.432 132.718C120.379 134.63 121.345 137.047 123.319 137.979C124.819 138.687 126.007 138.608 126.878 139.019C127.75 139.43 128.444 140.397 129.944 141.105C131.918 142.036 134.398 141.246 135.204 139.217C136.346 136.346 134.033 135.149 133.755 134.27C133.477 133.392 133.681 132.401 133.515 131.253Z" fill="#6D4C42"/>
<path fill-rule="evenodd" clip-rule="evenodd" d="M120.53 0L118.678 0.661376L107.829 6.61376L103.463 4.2328L100.155 2.91005L96.4505 1.85185L92.349 1.19048L87.3214 1.0582L83.3523 1.45503L79.5154 2.38095L75.9432 3.7037L69.9894 6.61376L62.0511 11.2434L22.8888 32.8042L13.4951 37.6984L9.39367 40.6085L6.87987 43.1217L4.23377 46.6931L1.71997 51.455L0.396916 55.6878L0 58.5979V61.3757L0.529221 64.9471L1.71997 68.9154L3.96916 73.9418L10.7167 85.7143L13.2305 90.873L14.0244 91.2699L34.0024 91.9312L36.2516 94.3122L37.0455 94.4445L37.707 93.5185L38.8977 90.0794L40.75 87.5661L44.0576 84.9206L47.4976 83.4656L49.8791 82.9365L52.7898 82.672L56.362 82.9365L59.8019 83.7302L64.9618 85.9788L66.1526 86.2434L66.0203 81.2169L66.4172 78.836L67.4756 75.7937L69.1956 72.8836L71.1802 70.6349L73.5617 68.6508L77.1339 66.4021L83.0877 63.2275L83.8815 63.8889L85.6015 67.5926L86.3953 68.1217H86.9245L88.5122 67.4603L91.1583 65.873L93.5398 67.5926L94.3336 67.8572H96.5828L99.3612 66.9312L104.521 64.0212L107.035 63.0952L107.3 63.6243L107.167 64.0212L105.315 65.3439V66.0053L108.358 71.8254L108.093 74.3386L105.976 83.4656L105.05 88.8889L104.918 93.5185L105.315 95.8995L105.712 96.8254L105.58 97.09H72.7679L72.3709 97.3545L71.974 98.2804L72.2386 99.4709L74.8847 99.6032L75.5463 100.132L75.6786 115.608L76.3401 124.206L77.5308 131.349L78.7216 135.847L80.3092 140.212L83.3523 146.164L86.7922 150.926L91.8198 155.952L94.3336 157.937L96.0536 158.862L96.8474 159.656V160.317L96.4505 160.582L93.8044 160.317L90.8937 159.524L87.7183 158.333L83.6169 156.217L80.0446 153.704L75.9432 149.735L72.2386 144.709L69.5925 139.683L67.6079 134.524L65.888 128.042L64.8295 121.693L64.168 113.492V105.291L64.8295 96.164L65.888 88.8889L63.5065 87.1693L61.3896 86.1111L58.7435 85.1852L55.1713 84.5238L50.5406 84.6561L47.1006 85.582L45.3807 86.3757L43.3961 87.6984L41.1469 89.9471L39.1623 93.254L34.267 110.317L30.2979 126.984L27.5195 141.27L25.5349 147.751L23.0211 152.646L20.375 156.217L17.4643 159.127L11.7752 163.492L9.12906 166.534L8.07062 168.783L7.6737 170.37L7.5414 173.677L7.93831 174.868L154.003 174.735L154.136 173.016L152.812 168.651L150.96 165.741L149.108 163.889L146.991 162.434L145.271 161.64L142.36 160.847L137.862 160.582L137.73 159.921L138.92 158.73L140.905 157.54L143.022 155.82L147.917 150.794L151.622 145.503L154.268 140.212L156.649 133.201L158.369 124.206L159.031 116.402L159.163 99.8677L159.428 99.6032L160.883 99.7355L161.942 99.4709L162.735 98.9418L162.868 98.2804L162.206 97.2222L143.022 97.3545L142.89 97.09L143.551 94.3122L143.948 91.1376V86.2434L142.89 81.4815L141.699 78.9683L140.508 77.2487L138.259 75L135.216 73.0159L131.776 71.2963L119.868 66.1376L118.942 65.0794L116.429 60.0529L116.032 59.9206L114.444 60.582H113.782L113.253 59.9206V58.9947L117.619 57.1429L120.133 55.1587L121.192 53.0423L120.927 50.1323L125.558 47.3545L122.912 42.4603L123.441 41.6667L125.425 40.0794L116.825 22.8836L128.468 16.4021L128.998 15.4762L120.53 0ZM77.7954 99.7355L156.649 99.6032L156.914 99.8677L156.782 113.228L156.252 121.429L155.459 127.513L154.136 133.466L153.077 136.773L151.622 140.344L149.24 144.709L146.065 149.074L141.567 153.704L137.994 156.614L135.745 157.937L135.613 160.582H99.3612L99.2289 158.069L93.9367 154.497L89.7029 150.397L87.8506 148.148L84.543 143.122L81.8969 137.434L80.0446 131.217L78.8539 124.074L78.3247 117.196L77.7954 99.7355ZM10.0552 171.296L10.7167 168.783L11.7752 167.064L14.1567 164.683L19.5812 160.582L22.095 158.069L25.5349 153.439L27.6518 149.339L29.2394 144.974L30.2979 141.005L33.3409 124.735L36.7808 110.053L40.2208 98.1482L42.3377 92.9894L44.8515 89.9471L48.0268 87.963L51.7313 87.037H54.7743L59.405 88.0952L63.1096 89.9471L61.7865 102.116L61.5219 112.434L62.0511 120.635L63.5065 129.365L65.7557 136.905L68.931 143.915L72.5032 149.471L74.2232 151.587L77.6631 155.026L82.0292 158.333L86.1307 160.582L89.5706 161.905L93.6721 162.831L104.786 163.36L123.308 162.831H137.862L142.36 163.36L145.536 164.418L147.653 165.741L149.373 167.46L150.431 169.048L151.489 171.561V172.355L10.1875 172.487L10.0552 171.296ZM122.25 16.4021V16.6667L121.192 17.5926L44.9838 58.2011L26.0641 68.6508L19.4489 71.9577L18.655 71.8254L12.3044 59.6561L10.0552 53.0423L9.39367 49.3386V45.7672L10.3198 43.254L12.4367 41.1376L16.1412 38.8889L22.4919 35.7143L61.7865 13.7566L74.6201 7.01058L79.1185 5.15873L83.3523 3.96825L85.7338 3.57143L91.2906 3.43915L93.5398 3.7037L97.112 4.49735L100.949 5.82011L107.696 9.25926L111.004 7.80423L115.502 5.15873L116.164 5.02646L122.25 16.4021ZM122.25 39.0212L122.118 39.6825L121.192 40.3439L75.1493 64.5503L72.3709 66.2699L70.5187 67.7249L68.2695 69.9736L65.888 73.2804L64.168 77.381L63.6388 80.0265L63.5065 82.2751L58.082 80.6878L55.1713 80.291H51.4667L47.3653 80.9524L44.3222 82.0106L40.75 84.127L38.6331 86.1111L36.5162 89.5503L35.8547 90.0794L33.7378 87.5661L31.224 85.4497L28.8425 84.127L24.8734 82.5397L24.2118 81.8783V81.4815L24.6088 81.0847L29.7687 78.7037L48.6883 68.5185H49.3498L50.6729 69.3122L51.7313 69.5767H53.5836L55.3036 68.9154L55.9651 68.3863L56.8912 66.9312L57.4205 64.1535L58.8758 62.963L117.884 31.4815L118.678 32.0106L121.588 38.0952L122.25 39.0212ZM114.841 24.4709L116.825 28.4392V29.6296L72.2386 52.9101L56.4943 61.7725L55.8328 61.5079L54.642 60.4497L53.319 59.9206L51.8636 59.7884L50.1437 60.3175L48.8206 61.3757L47.8945 62.963L47.6299 63.8889L47.7622 65.873L47.3653 66.4021L23.418 79.3651L22.6242 79.2328L20.2427 74.4709L20.6396 73.8095L25.7995 71.4286L112.459 24.7355L114.047 23.9418L114.841 24.4709ZM17.8612 166.534V167.725L18.1258 168.122L24.0795 168.254H130.982L126.748 166.138H56.0974L50.5406 164.947L46.9683 163.492L44.5868 161.905L42.8669 160.185L41.5438 158.333L39.8239 154.233L39.03 150.529L38.2362 140.608L38.5008 132.672L39.6916 123.677L40.8823 118.254L41.8084 115.344V114.815L39.9562 114.55L34.664 143.254L33.6055 147.09L32.4148 150.132L30.1656 154.365L27.1226 158.466L23.5503 162.037L20.7719 164.286L18.1258 166.005L17.8612 166.534ZM6.87987 47.4868L7.14448 47.7513V50.1323L7.80601 54.2328L9.79058 60.1852L12.3044 65.3439L17.9935 75.1323L21.4334 82.0106L23.2857 84.3915L28.9748 86.6402L31.8856 89.0212L31.6209 89.418L25.0057 89.1535L23.6826 88.8889L16.0089 89.0212L14.8182 88.4921L12.1721 83.3333L7.40909 75.5291L5.42451 71.8254L3.96916 68.3863L2.77841 63.8889L2.5138 59.6561L3.04302 55.8201L4.49838 51.455L5.68912 49.0741L6.87987 47.4868ZM150.96 105.688L150.563 105.423H149.24L148.579 105.688L148.446 116.667L148.05 121.958L147.388 126.72L146.594 130.423L145.139 135.053L141.963 141.534L138.524 146.164L135.348 149.206L132.438 151.323L127.013 153.968L123.308 155.026L119.736 155.556H114.973L112.062 155.159L108.887 154.365L105.447 153.042L102.272 151.323L99.3612 149.206L96.3182 146.296L94.4659 144.048L92.6136 141.27L90.6291 137.434L88.5122 131.482L87.3214 126.058L86.5276 119.577L86.1307 111.905L86.263 105.82L83.8815 105.688L84.0138 116.667L84.4107 121.825L85.2045 127.513L86.3953 132.672L87.4537 135.979L88.6445 138.889L90.8937 143.122L94.3336 147.751L98.5674 151.72L102.933 154.497L108.623 156.746L114.312 157.804L118.545 157.937L121.588 157.672L127.41 156.349L130.718 155.026L133.231 153.704L137.465 150.661L141.567 146.296L144.742 141.534L147.388 135.714L149.108 129.894L150.431 122.09L151.093 112.037L150.96 105.688ZM47.6299 166.005L22.095 166.138L21.9627 165.741L26.7256 162.302L30.5625 157.937L32.6794 154.63L34.9286 149.735L36.1193 145.635L36.5162 145.238L36.9131 150L37.5747 154.101L38.2362 156.482L39.2946 158.995L40.3531 160.714L42.3377 162.831L47.6299 166.005ZM101.346 12.5661L98.832 10.582L96.3182 9.39154L93.2752 8.46561L89.8352 7.93651H85.4692L81.8969 8.59789L77.5308 10.3175L70.5187 13.8889L47.4976 26.8519L37.9716 31.746L37.4424 32.4074V33.2011L38.1039 33.8624H39.1623L62.845 21.164L74.6201 14.2857L78.8539 12.3016L81.7646 11.2434L85.8661 10.3175L90.0998 10.1852L92.7459 10.582L94.9951 11.2434L98.1704 12.6984L99.7581 13.8889L100.684 13.7566L101.346 12.963V12.5661ZM121.059 43.6508L122.515 46.4286L122.25 46.8254L87.3214 65.0794L85.7338 62.6984L85.4692 61.9048L86.1307 61.3757L120.662 43.254L121.059 43.6508ZM114.576 70.3704L116.164 71.8254L122.647 80.5556L126.351 86.3757L129.659 93.254L130.718 96.4286V97.3545H125.822L124.499 95.8995L122.912 93.3863L120.133 87.5661L116.958 79.4974L114.444 71.2963L114.576 70.3704ZM117.487 69.3122L120.398 71.164L127.278 76.455L130.718 79.3651L133.231 82.1429L134.951 85.1852L136.01 88.8889L136.407 92.328V96.6931L136.142 97.2222L133.893 97.3545L133.231 96.9577L130.982 90.4762L128.865 86.2434L125.028 80.291L119.736 73.1482L117.355 69.5767L117.487 69.3122ZM121.456 69.0476L135.348 75.5291L136.804 76.5873L139.45 79.4974L141.17 83.0688L141.963 87.3016L141.831 91.799L141.037 96.5609L140.64 97.3545L138.524 97.2222L138.391 91.1376L137.862 87.1693L136.671 83.4656L135.216 81.0847L132.173 77.7778L122.118 70.1058L121.324 69.3122L121.456 69.0476ZM112.459 72.2222L118.281 88.6243L122.647 97.09L122.515 97.3545H116.429L115.502 96.2963L114.312 94.1799L113.253 90.873L112.592 86.3757L112.195 79.2328V73.4127L112.459 72.2222ZM109.946 76.0582L110.343 76.5873L110.475 77.7778V84.5238L110.872 90.0794L111.533 93.1217L113.386 97.09L113.253 97.3545H111.136L108.226 96.9577L107.829 96.2963L107.167 93.5185V89.5503L107.432 87.5661L109.946 76.0582ZM118.81 51.5873L118.678 53.1746L117.487 54.4974L112.856 56.746L102.14 62.8307L97.3766 65.2116L96.0536 65.6085L94.4659 65.3439L93.8044 64.8148L94.5982 64.1535L118.413 51.455L118.81 51.5873ZM115.37 62.8307L117.355 66.5344L110.21 70.1058L108.623 67.1958V66.2699L112.327 64.0212L114.444 62.963L115.37 62.8307ZM49.8791 99.3386L48.9529 99.7355L47.8945 101.19L47.7622 102.91L48.0268 103.836L48.6883 104.894L49.6144 105.556L50.5406 105.82L52.5252 105.556L53.1867 105.159L53.9805 104.101L54.2451 103.175L53.9805 101.19L53.5836 100.529L52.2606 99.4709L51.2021 99.2064L49.8791 99.3386ZM118.81 3.1746L119.736 3.04233L125.955 14.8148L125.822 15.0794L124.764 15.4762L123.705 14.0212L118.413 3.83598L118.81 3.1746ZM51.3344 62.4339H53.0544L54.2451 63.4921L54.5097 64.0212V65.873L53.4513 67.0635L52.2606 67.1958L51.3344 66.9312L50.5406 66.2699L50.1437 65.4762L50.276 63.4921L51.3344 62.4339ZM133.364 166.27V168.254H139.317L139.185 166.138L133.364 166.27ZM111.533 61.1111L111.666 61.5079L110.872 62.3016L109.813 62.6984H109.284L109.019 62.4339L109.152 61.6402L109.946 60.8466L110.739 60.582L111.533 61.1111ZM50.9375 101.323H51.4667L51.7313 101.587L51.9959 102.513L51.8636 103.175L51.2021 103.571L50.5406 103.439L50.0114 102.778L50.1437 101.852L50.9375 101.323Z" fill="#2E201C"/>
<path d="M484.666 52.9621V60.1441C484.666 62.0881 484.756 63.5281 484.936 64.4641C485.116 65.3641 485.53 65.9581 486.178 66.2461C486.862 66.5341 487.924 66.7321 489.364 66.8401V69.0001H472.354V66.8401C473.83 66.7321 474.892 66.5341 475.54 66.2461C476.224 65.9581 476.656 65.3821 476.836 64.5181C477.052 63.6541 477.16 62.3221 477.16 60.5221V38.3281C477.16 34.2601 477.034 31.5961 476.782 30.3361C476.602 29.4001 476.224 28.8241 475.648 28.6081C475.072 28.3561 474.028 28.2301 472.516 28.2301V26.2321L484.558 24.1801V44.1061H484.774C485.89 42.6301 487.132 41.5501 488.5 40.8661C489.904 40.1821 491.596 39.8401 493.576 39.8401C495.376 39.8401 496.96 40.1281 498.328 40.7041C499.732 41.2441 500.92 42.0901 501.892 43.2421C502.828 44.3581 503.53 45.6721 503.998 47.1841C504.502 48.6601 504.754 50.1901 504.754 51.7741V60.1441C504.754 62.1241 504.844 63.5821 505.024 64.5181C505.204 65.4181 505.618 66.0121 506.266 66.3001C506.914 66.5521 507.94 66.7321 509.344 66.8401V69.0001H492.442V66.8401C493.882 66.7681 494.944 66.5881 495.628 66.3001C496.312 66.0121 496.744 65.4361 496.924 64.5721C497.14 63.6721 497.248 62.3221 497.248 60.5221V53.8801C497.248 50.0281 496.834 47.3281 496.006 45.7801C495.178 44.1961 493.756 43.4041 491.74 43.4041C490.624 43.4041 489.652 43.6021 488.824 43.9981C487.996 44.3941 487.276 44.9701 486.664 45.7261C485.98 46.5901 485.476 47.6521 485.152 48.9121C484.828 50.1361 484.666 51.4861 484.666 52.9621Z" fill="#2E201C"/>
<path d="M456.163 43.3501H452.221V40.9201C454.345 40.3081 456.145 39.3721 457.621 38.1121C459.097 36.8521 460.195 35.4301 460.915 33.8461H463.669V40.3801H469.879V43.3501H463.669V59.9281C463.669 62.1241 463.921 63.7081 464.425 64.6801C464.929 65.6161 465.739 66.0841 466.855 66.0841C467.575 66.0841 468.187 65.9401 468.691 65.6521C469.231 65.3281 469.681 64.8241 470.041 64.1401L471.175 65.7061C470.167 68.2621 467.791 69.5401 464.047 69.5401C461.563 69.5401 459.619 68.9641 458.215 67.8121C456.847 66.6601 456.163 65.0401 456.163 62.9521V43.3501Z" fill="#2E201C"/>
<path d="M445.237 39.8401V60.1441C445.237 62.0521 445.327 63.4741 445.507 64.4101C445.723 65.3461 446.173 65.9761 446.857 66.3001C447.541 66.5881 448.567 66.7681 449.935 66.8401V69.0001H432.925V66.8401C434.293 66.7681 435.319 66.5701 436.003 66.2461C436.687 65.8861 437.137 65.2741 437.353 64.4101C437.605 63.5101 437.731 62.2141 437.731 60.5221V53.8801C437.731 51.7921 437.695 50.0641 437.623 48.6961C437.551 47.3281 437.461 46.4101 437.353 45.9421C437.173 45.0421 436.759 44.4481 436.111 44.1601C435.499 43.8721 434.365 43.7281 432.709 43.7281V41.8921L445.237 39.8401ZM437.299 28.3381C437.299 27.1861 437.695 26.2141 438.487 25.4221C439.315 24.5941 440.323 24.1801 441.511 24.1801C442.663 24.1801 443.635 24.5941 444.427 25.4221C445.255 26.2141 445.669 27.1861 445.669 28.3381C445.669 29.5261 445.255 30.5341 444.427 31.3621C443.635 32.1541 442.663 32.5501 441.511 32.5501C440.323 32.5501 439.315 32.1541 438.487 31.3621C437.695 30.5341 437.299 29.5261 437.299 28.3381Z" fill="#2E201C"/>
<path d="M396.118 69.5401L388.72 47.3461C388.36 46.1941 387.946 45.2761 387.478 44.5921C387.01 43.9081 386.47 43.4041 385.858 43.0801C385.246 42.7561 384.526 42.5761 383.698 42.5401V40.3801H399.142V42.5401C397.846 42.5761 396.946 42.7741 396.442 43.1341C395.938 43.4581 395.686 44.0341 395.686 44.8621C395.686 45.2221 395.74 45.6541 395.848 46.1581C395.992 46.6261 396.136 47.1661 396.28 47.7781L399.682 60.4141H399.898L407.458 40.3801H411.886L417.556 60.4141H417.826L422.146 49.2361C422.398 48.6241 422.578 48.0841 422.686 47.6161C422.83 47.1121 422.938 46.6621 423.01 46.2661C423.082 45.8341 423.118 45.4561 423.118 45.1321C423.118 44.1961 422.812 43.5301 422.2 43.1341C421.588 42.7381 420.76 42.5401 419.716 42.5401V40.3801H431.326V42.5401C430.678 42.5401 430.138 42.6121 429.706 42.7561C429.274 42.9001 428.842 43.2421 428.41 43.7821C428.014 44.3221 427.546 45.1501 427.006 46.2661C426.502 47.3821 425.872 48.9121 425.116 50.8561L417.664 69.5401H413.398L407.674 50.3701H407.458L400.168 69.5401H396.118Z" fill="#2E201C"/>
<path d="M349.102 69.5401C346.366 69.5401 343.936 68.9281 341.812 67.7041C339.724 66.4441 338.086 64.7161 336.898 62.5201C335.71 60.2881 335.116 57.7501 335.116 54.9061C335.116 52.0261 335.71 49.4521 336.898 47.1841C338.086 44.9161 339.706 43.1341 341.758 41.8381C343.846 40.5061 346.186 39.8401 348.778 39.8401C350.578 39.8401 352.18 40.1101 353.584 40.6501C354.988 41.1901 356.194 42.1081 357.202 43.4041H357.418V38.8141C357.418 36.6901 357.382 34.8721 357.31 33.3601C357.274 31.8121 357.202 30.8041 357.094 30.3361C356.95 29.5801 356.41 29.0401 355.474 28.7161C354.538 28.3561 353.116 28.1761 351.208 28.1761V26.3401L364.87 24.1801V55.0681C364.87 57.7321 364.888 59.8021 364.924 61.2781C364.996 62.7541 365.104 63.8701 365.248 64.6261C365.428 65.5621 365.752 66.1741 366.22 66.4621C366.688 66.7141 367.696 66.8401 369.244 66.8401V68.9461L358.984 69.5401V65.5441H358.768C357.544 66.8761 356.104 67.8841 354.448 68.5681C352.828 69.2161 351.046 69.5401 349.102 69.5401ZM357.31 55.6081V53.5021C357.31 52.1341 357.166 50.8741 356.878 49.7221C356.59 48.5341 356.158 47.4901 355.582 46.5901C354.934 45.5461 354.106 44.7541 353.098 44.2141C352.09 43.6741 351.01 43.4041 349.858 43.4041C347.77 43.4041 346.15 44.3941 344.998 46.3741C343.882 48.3181 343.324 51.1261 343.324 54.7981C343.324 58.5061 343.882 61.3861 344.998 63.4381C346.114 65.4541 347.716 66.4621 349.804 66.4621C350.992 66.4621 352.126 66.1561 353.206 65.5441C354.286 64.9321 355.168 64.1041 355.852 63.0601C356.356 62.2681 356.716 61.2961 356.932 60.1441C357.184 58.9561 357.31 57.4441 357.31 55.6081Z" fill="#2E201C"/>
<path d="M329.07 62.0881L330.582 63.9781C327.306 67.6861 323.22 69.5401 318.324 69.5401C315.372 69.5401 312.78 68.9281 310.548 67.7041C308.316 66.4801 306.57 64.7881 305.31 62.6281C304.086 60.4321 303.474 57.9121 303.474 55.0681C303.474 52.0801 304.122 49.4521 305.418 47.1841C306.75 44.8801 308.586 43.0801 310.926 41.7841C313.266 40.4881 315.948 39.8401 318.972 39.8401C322.788 39.8401 325.758 40.8841 327.882 42.9721C330.006 45.0241 331.068 47.8861 331.068 51.5581C331.068 52.1341 330.978 52.4941 330.798 52.6381C330.618 52.7461 330.114 52.8001 329.286 52.8001H311.898C311.826 52.9801 311.772 53.2141 311.736 53.5021C311.7 53.7901 311.682 54.1501 311.682 54.5821C311.682 56.9221 312.024 58.9561 312.708 60.6841C313.428 62.3761 314.418 63.6901 315.678 64.6261C316.974 65.5621 318.486 66.0301 320.214 66.0301C321.726 66.0301 323.22 65.6881 324.696 65.0041C326.208 64.3201 327.666 63.3481 329.07 62.0881ZM312.276 49.7761H320.106C321.582 49.7761 322.518 49.7041 322.914 49.5601C323.31 49.3801 323.508 48.9841 323.508 48.3721C323.508 46.7881 323.058 45.4921 322.158 44.4841C321.258 43.4761 320.124 42.9721 318.756 42.9721C317.208 42.9721 315.822 43.6201 314.598 44.9161C313.41 46.1761 312.636 47.7961 312.276 49.7761Z" fill="#2E201C"/>
<path d="M267.903 69.0001V66.8401C269.235 66.8041 270.243 66.6241 270.927 66.3001C271.611 65.9401 272.079 65.3101 272.331 64.4101C272.583 63.5101 272.709 62.2141 272.709 60.5221V37.6261C272.709 35.2501 272.655 33.3421 272.547 31.9021C272.475 30.4621 272.133 29.4721 271.521 28.9321C271.161 28.6081 270.693 28.4101 270.117 28.3381C269.577 28.2661 268.893 28.2301 268.065 28.2301V26.2321L280.107 24.1801V54.2041L285.291 49.2901C287.163 47.5261 288.495 46.1941 289.287 45.2941C290.079 44.3941 290.475 43.7641 290.475 43.4041C290.475 43.0801 290.133 42.8641 289.449 42.7561C288.801 42.6121 287.577 42.5401 285.777 42.5401V40.3801H300.519V42.5401C299.619 42.5401 298.791 42.6481 298.035 42.8641C297.279 43.0441 296.541 43.3681 295.821 43.8361C295.101 44.2681 294.327 44.8801 293.499 45.6721L288.261 50.5861L297.603 63.8161C298.179 64.5721 298.719 65.1841 299.223 65.6521C299.727 66.0841 300.285 66.3901 300.897 66.5701C301.545 66.7501 302.301 66.8401 303.165 66.8401V69.0001H286.371V66.8401C287.523 66.8401 288.333 66.8041 288.801 66.7321C289.269 66.6241 289.503 66.4441 289.503 66.1921C289.503 65.9401 289.305 65.4541 288.909 64.7341C288.513 64.0141 287.847 62.9701 286.911 61.6021L282.807 55.4461L280.107 58.0381V60.1441C280.107 62.0161 280.197 63.4381 280.377 64.4101C280.593 65.3461 280.971 65.9941 281.511 66.3541C282.051 66.6781 282.825 66.8401 283.833 66.8401V69.0001H267.903Z" fill="#2E201C"/>
<path d="M260.493 69.5401C258.837 69.5401 257.559 69.0541 256.659 68.0821C255.795 67.0741 255.363 65.6341 255.363 63.7621H255.093C254.121 65.5621 252.789 66.9661 251.097 67.9741C249.405 68.9821 247.551 69.4861 245.535 69.4861C243.879 69.4861 242.475 69.1801 241.323 68.5681C240.171 67.9201 239.307 67.0921 238.731 66.0841C238.155 65.0761 237.867 63.9961 237.867 62.8441C237.867 61.0801 238.587 59.5141 240.027 58.1461C241.503 56.7421 243.843 55.3561 247.047 53.9881L254.607 50.7481V48.4801C254.607 46.4281 254.229 44.9161 253.473 43.9441C252.753 42.9721 251.637 42.4861 250.125 42.4861C249.081 42.4861 248.289 42.7561 247.749 43.2961C247.209 43.8001 246.687 44.7361 246.183 46.1041C245.895 46.9321 245.445 47.6161 244.833 48.1561C244.221 48.6961 243.411 48.9661 242.403 48.9661C241.395 48.9661 240.603 48.6781 240.027 48.1021C239.487 47.4901 239.217 46.6801 239.217 45.6721C239.217 43.8361 240.171 42.4141 242.079 41.4061C243.987 40.3621 246.795 39.8401 250.503 39.8401C254.607 39.8401 257.523 40.5601 259.251 42.0001C260.979 43.4401 261.843 45.8881 261.843 49.3441V61.1701C261.843 62.7541 261.987 63.9241 262.275 64.6801C262.599 65.4001 263.103 65.7601 263.787 65.7601C264.075 65.7601 264.363 65.7061 264.651 65.5981C264.975 65.4901 265.281 65.3101 265.569 65.0581L266.379 66.6241C265.911 67.4881 265.137 68.1901 264.057 68.7301C262.977 69.2701 261.789 69.5401 260.493 69.5401ZM248.883 64.4641C249.891 64.4641 250.827 64.2121 251.691 63.7081C252.555 63.2041 253.257 62.5201 253.797 61.6561C254.337 60.7561 254.607 59.7841 254.607 58.7401V53.6101C252.339 54.6901 250.539 55.6441 249.207 56.4721C247.875 57.3001 246.921 58.0921 246.345 58.8481C245.769 59.6041 245.481 60.4141 245.481 61.2781C245.481 62.2501 245.787 63.0241 246.399 63.6001C247.011 64.1761 247.839 64.4641 248.883 64.4641Z" fill="#2E201C"/>
<path d="M194.782 69.0001V66.8401C196.402 66.7681 197.608 66.5881 198.4 66.3001C199.228 65.9761 199.786 65.3821 200.074 64.5181C200.362 63.6541 200.506 62.3761 200.506 60.6841V35.7361C200.506 34.0441 200.398 32.7841 200.182 31.9561C199.966 31.0921 199.516 30.4981 198.832 30.1741C198.184 29.8501 197.212 29.6521 195.916 29.5801V27.4201H213.25C218.65 27.4201 222.826 28.3021 225.778 30.0661C228.73 31.8301 230.206 34.3141 230.206 37.5181C230.206 39.6781 229.432 41.5141 227.884 43.0261C226.372 44.5021 224.068 45.6901 220.972 46.5901V46.8061C223.636 46.8061 225.922 47.2921 227.83 48.2641C229.774 49.2361 231.268 50.5681 232.312 52.2601C233.392 53.9521 233.932 55.8781 233.932 58.0381C233.932 59.8741 233.482 61.4761 232.582 62.8441C231.718 64.2121 230.458 65.3641 228.802 66.3001C227.218 67.2001 225.31 67.8841 223.078 68.3521C220.846 68.7841 218.344 69.0001 215.572 69.0001H194.782ZM215.95 65.7061C221.746 65.7061 224.644 63.0961 224.644 57.8761C224.644 56.2921 224.392 54.9241 223.888 53.7721C223.384 52.5841 222.592 51.6121 221.512 50.8561C220.432 50.1001 219.028 49.5601 217.3 49.2361C215.572 48.9121 213.484 48.7501 211.036 48.7501H208.444V59.5501C208.444 61.7461 209.02 63.3301 210.172 64.3021C211.324 65.2381 213.25 65.7061 215.95 65.7061ZM208.444 45.5101H211.63C213.25 45.5101 214.654 45.3661 215.842 45.0781C217.066 44.7541 218.074 44.3041 218.866 43.7281C219.766 43.1161 220.414 42.3421 220.81 41.4061C221.242 40.4701 221.458 39.3901 221.458 38.1661C221.458 35.5381 220.81 33.6481 219.514 32.4961C218.218 31.3081 216.13 30.7141 213.25 30.7141H209.416C208.768 30.7141 208.444 31.0201 208.444 31.6321V45.5101Z" fill="#2E201C"/>
<path d="M438.169 22.7708C439.577 22.711 440.654 21.1606 440.576 19.3079C440.496 17.4554 439.291 16.0024 437.882 16.0624C436.474 16.1229 435.397 17.6729 435.476 19.5256C435.555 21.3782 436.76 22.8311 438.169 22.7708Z" fill="#6D4C42"/>
<path d="M434.588 27.2641C435.821 26.6223 436.136 24.7878 435.292 23.1652C434.448 21.5434 432.764 20.7486 431.531 21.3897C430.299 22.0317 429.983 23.8665 430.827 25.4887C431.671 27.1106 433.355 27.9054 434.588 27.2641Z" fill="#6D4C42"/>
<path d="M444.524 23.073C445.921 23.2669 447.259 21.9348 447.513 20.0983C447.767 18.2609 446.842 16.6155 445.446 16.4217C444.05 16.2284 442.712 17.5609 442.457 19.3973C442.203 21.2345 443.128 22.8798 444.524 23.073Z" fill="#6D4C42"/>
<path d="M451.263 22.328C450.096 21.5727 448.345 22.2039 447.351 23.7384C446.357 25.2736 446.497 27.1299 447.663 27.8856C448.83 28.6409 450.581 28.0098 451.575 26.4749C452.569 24.9401 452.429 23.0837 451.263 22.328Z" fill="#6D4C42"/>
<path d="M443.873 25.6293C443.335 24.7264 442.383 24.0948 441.257 24.0412C440.132 23.9878 439.124 24.5263 438.503 25.3736C437.818 26.3105 437.533 27.2807 436.875 27.9261C436.217 28.5715 433.613 28.5432 433.274 31.6149C433.035 33.7845 434.854 35.6464 437.034 35.75C438.691 35.8288 439.757 35.3006 440.72 35.3461C441.682 35.3917 442.694 36.0189 444.351 36.0976C446.531 36.2013 448.519 34.5206 448.486 32.338C448.44 29.248 445.845 29.0292 445.251 28.3244C444.658 27.6196 444.466 26.6266 443.873 25.6293Z" fill="#6D4C42"/>
<path d="M485.668 153.41L484.04 156H481.746V142.532H484.854C485.693 146.035 486.901 148.625 488.48 150.302C490.059 151.93 492.106 152.744 494.622 152.744C496.447 152.744 497.853 152.374 498.84 151.634C499.876 150.845 500.394 149.784 500.394 148.452C500.394 147.515 500.123 146.627 499.58 145.788C499.037 144.9 498.174 144.012 496.99 143.124C495.855 142.187 494.375 141.225 492.55 140.238C490.083 138.857 488.061 137.525 486.482 136.242C484.953 134.91 483.818 133.529 483.078 132.098C482.387 130.667 482.042 129.113 482.042 127.436C482.042 125.216 482.56 123.243 483.596 121.516C484.681 119.789 486.137 118.433 487.962 117.446C489.787 116.459 491.835 115.966 494.104 115.966C495.633 115.966 497.163 116.188 498.692 116.632C500.221 117.076 501.529 117.693 502.614 118.482L503.946 116.706H505.87V127.88H502.984C501.849 125.068 500.665 123.045 499.432 121.812C498.248 120.579 496.793 119.962 495.066 119.962C493.685 119.962 492.575 120.332 491.736 121.072C490.947 121.812 490.552 122.799 490.552 124.032C490.552 125.413 491.169 126.721 492.402 127.954C493.635 129.187 495.633 130.544 498.396 132.024C501.06 133.455 503.206 134.861 504.834 136.242C506.511 137.623 507.72 139.054 508.46 140.534C509.2 142.014 509.57 143.642 509.57 145.418C509.57 148.822 508.337 151.56 505.87 153.632C503.453 155.704 500.197 156.74 496.102 156.74C493.981 156.74 492.007 156.469 490.182 155.926C488.357 155.334 486.852 154.495 485.668 153.41Z" fill="#2E201C"/>
<path d="M453.378 175.24C447.211 175.24 442.475 174.303 439.17 172.428C435.865 170.603 434.212 167.963 434.212 164.51C434.212 162.191 434.878 160.366 436.21 159.034C437.591 157.751 439.293 157.11 441.316 157.11C442.599 157.11 443.832 157.357 445.016 157.85C446.249 158.393 447.261 159.157 448.05 160.144C446.767 160.391 445.707 160.958 444.868 161.846C444.079 162.783 443.684 163.918 443.684 165.25C443.684 167.125 444.572 168.58 446.348 169.616C448.124 170.701 450.739 171.244 454.192 171.244C461.493 171.244 465.144 168.925 465.144 164.288C465.144 162.561 464.601 161.106 463.516 159.922C462.48 158.738 460.877 157.998 458.706 157.702L445.756 155.926C443.043 155.531 440.995 154.717 439.614 153.484C438.233 152.251 437.542 150.623 437.542 148.6C437.542 146.577 438.183 144.925 439.466 143.642C440.798 142.359 442.673 141.471 445.09 140.978V140.682C442.87 139.794 441.045 138.265 439.614 136.094C438.183 133.874 437.468 131.481 437.468 128.916C437.468 126.449 438.134 124.254 439.466 122.33C440.798 120.406 442.599 118.877 444.868 117.742C447.187 116.607 449.752 116.04 452.564 116.04C454.735 116.04 456.831 116.361 458.854 117.002C460.877 117.643 462.603 118.531 464.034 119.666C465.909 118.186 467.561 117.224 468.992 116.78C470.472 116.287 471.829 116.04 473.062 116.04C474.937 116.04 476.441 116.459 477.576 117.298C478.76 118.137 479.352 119.247 479.352 120.628C479.352 121.664 479.031 122.527 478.39 123.218C477.749 123.859 476.935 124.18 475.948 124.18C474.961 124.18 474.172 123.909 473.58 123.366C473.037 122.823 472.495 122.305 471.952 121.812C471.459 121.269 470.768 120.998 469.88 120.998C468.795 120.998 467.759 121.664 466.772 122.996C467.265 123.835 467.611 124.747 467.808 125.734C468.005 126.671 468.104 127.707 468.104 128.842C468.104 130.766 467.808 132.542 467.216 134.17C466.624 135.749 465.687 137.179 464.404 138.462C463.171 139.695 461.567 140.731 459.594 141.57C457.621 142.359 455.228 142.902 452.416 143.198C450.887 143.346 449.653 143.543 448.716 143.79C447.779 144.037 447.113 144.333 446.718 144.678C446.323 144.974 446.126 145.393 446.126 145.936C446.126 146.528 446.397 146.997 446.94 147.342C447.532 147.687 448.371 147.934 449.456 148.082L461.518 149.562C465.317 150.055 468.326 151.461 470.546 153.78C472.766 156.099 473.876 158.985 473.876 162.438C473.876 166.631 472.125 169.813 468.622 171.984C465.169 174.155 460.087 175.24 453.378 175.24ZM453.008 138.98C454.587 138.98 455.82 138.141 456.708 136.464C457.596 134.787 458.04 132.443 458.04 129.434C458.04 126.375 457.596 124.032 456.708 122.404C455.82 120.727 454.562 119.888 452.934 119.888C451.257 119.888 449.925 120.727 448.938 122.404C447.951 124.081 447.458 126.375 447.458 129.286C447.458 132.197 447.951 134.54 448.938 136.316C449.974 138.092 451.331 138.98 453.008 138.98Z" fill="#2E201C"/>
<path d="M397.836 133.726V143.938C397.836 146.602 397.96 148.551 398.206 149.784C398.453 151.017 399.02 151.831 399.908 152.226C400.846 152.621 402.301 152.892 404.274 153.04V156H380.964V153.04C382.888 152.892 384.319 152.645 385.256 152.3C386.194 151.905 386.81 151.116 387.106 149.932C387.402 148.748 387.55 146.923 387.55 144.456V135.206C387.55 132.295 387.501 129.952 387.402 128.176C387.304 126.351 387.18 125.117 387.032 124.476C386.736 123.193 386.169 122.355 385.33 121.96C384.492 121.565 382.938 121.368 380.668 121.368V118.852L394.95 116.04L395.912 122.552H396.208C397.836 120.529 399.76 118.951 401.98 117.816C404.25 116.632 406.692 116.04 409.306 116.04C412.464 116.04 415.004 116.484 416.928 117.372C418.902 118.211 420.653 119.641 422.182 121.664C423.021 122.799 423.761 124.279 424.402 126.104C425.044 127.88 425.364 130.347 425.364 133.504V143.938C425.364 146.602 425.488 148.551 425.734 149.784C425.981 151.017 426.548 151.831 427.436 152.226C428.374 152.621 429.78 152.892 431.654 153.04V156H408.492V153.04C410.466 152.941 411.896 152.695 412.784 152.3C413.722 151.905 414.338 151.116 414.634 149.932C414.93 148.699 415.078 146.873 415.078 144.456V134.392C415.078 129.36 414.437 125.857 413.154 123.884C411.921 121.861 409.701 120.85 406.494 120.85C404.916 120.85 403.559 121.294 402.424 122.182C401.29 123.07 400.303 124.303 399.464 125.882C399.168 126.474 398.897 127.189 398.65 128.028C398.404 128.867 398.206 129.779 398.058 130.766C397.91 131.703 397.836 132.69 397.836 133.726Z" fill="#2E201C"/>
<path d="M371.098 116.04V143.864C371.098 146.479 371.221 148.427 371.468 149.71C371.764 150.993 372.381 151.856 373.318 152.3C374.255 152.695 375.661 152.941 377.536 153.04V156H354.226V153.04C356.101 152.941 357.507 152.67 358.444 152.226C359.381 151.733 359.998 150.894 360.294 149.71C360.639 148.477 360.812 146.701 360.812 144.382V135.28C360.812 132.419 360.763 130.051 360.664 128.176C360.565 126.301 360.442 125.043 360.294 124.402C360.047 123.169 359.48 122.355 358.592 121.96C357.753 121.565 356.199 121.368 353.93 121.368V118.852L371.098 116.04ZM360.22 100.278C360.22 98.6993 360.763 97.3673 361.848 96.282C362.983 95.1473 364.364 94.58 365.992 94.58C367.571 94.58 368.903 95.1473 369.988 96.282C371.123 97.3673 371.69 98.6993 371.69 100.278C371.69 101.906 371.123 103.287 369.988 104.422C368.903 105.507 367.571 106.05 365.992 106.05C364.364 106.05 362.983 105.507 361.848 104.422C360.763 103.287 360.22 101.906 360.22 100.278Z" fill="#2E201C"/>
<path d="M344.053 94.58V143.864C344.053 146.479 344.177 148.427 344.423 149.71C344.719 150.993 345.336 151.856 346.273 152.3C347.211 152.695 348.617 152.941 350.491 153.04V156H327.181V153.04C329.056 152.941 330.462 152.67 331.399 152.226C332.337 151.733 332.953 150.894 333.249 149.71C333.595 148.477 333.767 146.701 333.767 144.382V113.82C333.767 110.959 333.718 108.591 333.619 106.716C333.521 104.841 333.397 103.583 333.249 102.942C333.003 101.709 332.435 100.895 331.547 100.5C330.709 100.105 329.155 99.908 326.885 99.908V97.392L344.053 94.58Z" fill="#2E201C"/>
<path d="M320.376 146.528L322.448 149.118C317.959 154.199 312.36 156.74 305.65 156.74C301.605 156.74 298.053 155.901 294.994 154.224C291.936 152.547 289.543 150.228 287.816 147.268C286.139 144.259 285.3 140.805 285.3 136.908C285.3 132.813 286.188 129.212 287.964 126.104C289.79 122.947 292.306 120.48 295.512 118.704C298.719 116.928 302.394 116.04 306.538 116.04C311.768 116.04 315.838 117.471 318.748 120.332C321.659 123.144 323.114 127.066 323.114 132.098C323.114 132.887 322.991 133.381 322.744 133.578C322.498 133.726 321.807 133.8 320.672 133.8H296.844C296.746 134.047 296.672 134.367 296.622 134.762C296.573 135.157 296.548 135.65 296.548 136.242C296.548 139.449 297.017 142.236 297.954 144.604C298.941 146.923 300.298 148.723 302.024 150.006C303.8 151.289 305.872 151.93 308.24 151.93C310.312 151.93 312.36 151.461 314.382 150.524C316.454 149.587 318.452 148.255 320.376 146.528ZM297.362 129.656H308.092C310.115 129.656 311.398 129.557 311.94 129.36C312.483 129.113 312.754 128.571 312.754 127.732C312.754 125.561 312.138 123.785 310.904 122.404C309.671 121.023 308.117 120.332 306.242 120.332C304.121 120.332 302.222 121.22 300.544 122.996C298.916 124.723 297.856 126.943 297.362 129.656Z" fill="#2E201C"/>
<path d="M277.089 146.528L279.161 149.118C274.672 154.199 269.072 156.74 262.363 156.74C258.318 156.74 254.766 155.901 251.707 154.224C248.648 152.547 246.256 150.228 244.529 147.268C242.852 144.259 242.013 140.805 242.013 136.908C242.013 132.813 242.901 129.212 244.677 126.104C246.503 122.947 249.019 120.48 252.225 118.704C255.432 116.928 259.107 116.04 263.251 116.04C268.48 116.04 272.551 117.471 275.461 120.332C278.372 123.144 279.827 127.066 279.827 132.098C279.827 132.887 279.704 133.381 279.457 133.578C279.211 133.726 278.52 133.8 277.385 133.8H253.557C253.459 134.047 253.385 134.367 253.335 134.762C253.286 135.157 253.261 135.65 253.261 136.242C253.261 139.449 253.73 142.236 254.667 144.604C255.654 146.923 257.011 148.723 258.737 150.006C260.513 151.289 262.585 151.93 264.953 151.93C267.025 151.93 269.073 151.461 271.095 150.524C273.167 149.587 275.165 148.255 277.089 146.528ZM254.075 129.656H264.805C266.828 129.656 268.111 129.557 268.653 129.36C269.196 129.113 269.467 128.571 269.467 127.732C269.467 125.561 268.851 123.785 267.617 122.404C266.384 121.023 264.83 120.332 262.955 120.332C260.834 120.332 258.935 121.22 257.257 122.996C255.629 124.723 254.568 126.943 254.075 129.656Z" fill="#2E201C"/>
<path d="M193.59 156V153.04C195.81 152.941 197.463 152.695 198.548 152.3C199.683 151.856 200.423 151.042 200.768 149.858C201.163 148.674 201.36 146.923 201.36 144.604V110.416C201.36 108.097 201.187 106.371 200.842 105.236C200.497 104.052 199.831 103.238 198.844 102.794C197.857 102.35 196.377 102.079 194.404 101.98V99.02H239.692L240.58 114.634H237.472C237.077 111.822 236.411 109.577 235.474 107.9C234.586 106.223 233.205 105.014 231.33 104.274C229.505 103.534 226.989 103.164 223.782 103.164H213.57C212.682 103.164 212.238 103.583 212.238 104.422V125.808C216.234 125.808 219.293 125.561 221.414 125.068C223.535 124.575 225.04 123.637 225.928 122.256C226.816 120.875 227.383 118.852 227.63 116.188H230.368V139.35H227.63C227.334 137.278 226.89 135.625 226.298 134.392C225.755 133.109 224.941 132.147 223.856 131.506C222.771 130.815 221.291 130.347 219.416 130.1C217.541 129.853 215.149 129.73 212.238 129.73V144.086C212.238 146.602 212.485 148.501 212.978 149.784C213.471 151.017 214.483 151.856 216.012 152.3C217.591 152.695 219.934 152.941 223.042 153.04V156H193.59Z" fill="#2E201C"/>
<path d="M356.484 100.004L365.335 108.855L374.186 100.004C375.228 98.9615 375.814 97.548 375.814 96.0742V95.8249C375.814 92.8935 373.437 90.5171 370.506 90.5171C368.894 90.5171 367.369 91.2501 366.361 92.5091L365.335 93.7916L364.309 92.5091C363.302 91.2501 361.777 90.5171 360.165 90.5171C357.233 90.5171 354.857 92.8935 354.857 95.8249V96.0742C354.857 97.548 355.442 98.9615 356.484 100.004Z" fill="#6D4C42"/>
</svg>
