<svg width="316" height="160" viewBox="0 0 316 160" fill="none" xmlns="http://www.w3.org/2000/svg">
<path d="M291.076 36.9014V44.0835C291.076 46.0275 291.166 47.4674 291.346 48.4035C291.526 49.3035 291.94 49.8974 292.588 50.1854C293.272 50.4734 294.334 50.6714 295.774 50.7794V52.9394H278.764V50.7794C280.24 50.6714 281.302 50.4734 281.95 50.1854C282.634 49.8974 283.066 49.3214 283.246 48.4575C283.462 47.5935 283.57 46.2614 283.57 44.4614V22.2674C283.57 18.1994 283.444 15.5354 283.192 14.2754C283.012 13.3394 282.634 12.7634 282.058 12.5474C281.482 12.2954 280.438 12.1694 278.926 12.1694V10.1714L290.968 8.11945V28.0454H291.184C292.3 26.5694 293.542 25.4894 294.91 24.8054C296.314 24.1214 298.006 23.7794 299.986 23.7794C301.786 23.7794 303.37 24.0674 304.738 24.6434C306.142 25.1834 307.33 26.0294 308.302 27.1814C309.238 28.2974 309.94 29.6114 310.408 31.1234C310.912 32.5994 311.164 34.1294 311.164 35.7134V44.0835C311.164 46.0634 311.254 47.5215 311.434 48.4575C311.614 49.3575 312.028 49.9515 312.676 50.2394C313.324 50.4914 314.35 50.6714 315.754 50.7794V52.9394H298.852V50.7794C300.292 50.7075 301.354 50.5274 302.038 50.2394C302.722 49.9515 303.154 49.3754 303.334 48.5114C303.55 47.6114 303.658 46.2614 303.658 44.4614V37.8194C303.658 33.9674 303.244 31.2674 302.416 29.7194C301.588 28.1354 300.166 27.3434 298.15 27.3434C297.034 27.3434 296.062 27.5414 295.234 27.9374C294.406 28.3334 293.686 28.9094 293.074 29.6654C292.39 30.5294 291.886 31.5914 291.562 32.8514C291.238 34.0754 291.076 35.4254 291.076 36.9014Z" fill="#2E201C"/>
<path d="M262.573 27.2894H258.631V24.8594C260.755 24.2474 262.555 23.3114 264.031 22.0514C265.507 20.7914 266.605 19.3694 267.325 17.7854H270.079V24.3194H276.289V27.2894H270.079V43.8674C270.079 46.0634 270.331 47.6474 270.835 48.6194C271.339 49.5555 272.149 50.0234 273.265 50.0234C273.985 50.0234 274.597 49.8794 275.101 49.5914C275.641 49.2674 276.091 48.7635 276.451 48.0794L277.585 49.6455C276.577 52.2015 274.201 53.4795 270.457 53.4795C267.973 53.4795 266.029 52.9035 264.625 51.7515C263.257 50.5995 262.573 48.9795 262.573 46.8914V27.2894Z" fill="#2E201C"/>
<path d="M251.647 23.7794V44.0835C251.647 45.9915 251.737 47.4134 251.917 48.3494C252.133 49.2854 252.583 49.9154 253.267 50.2394C253.951 50.5274 254.977 50.7075 256.345 50.7794V52.9394H239.335V50.7794C240.703 50.7075 241.729 50.5094 242.413 50.1854C243.097 49.8254 243.547 49.2134 243.763 48.3494C244.015 47.4494 244.141 46.1535 244.141 44.4614V37.8194C244.141 35.7314 244.105 34.0034 244.033 32.6354C243.961 31.2674 243.871 30.3494 243.763 29.8814C243.583 28.9814 243.169 28.3874 242.521 28.0994C241.909 27.8114 240.775 27.6674 239.119 27.6674V25.8314L251.647 23.7794ZM243.709 12.2774C243.709 11.1254 244.105 10.1534 244.897 9.36145C245.725 8.53345 246.733 8.11945 247.921 8.11945C249.073 8.11945 250.045 8.53345 250.837 9.36145C251.665 10.1534 252.079 11.1254 252.079 12.2774C252.079 13.4654 251.665 14.4734 250.837 15.3014C250.045 16.0934 249.073 16.4894 247.921 16.4894C246.733 16.4894 245.725 16.0934 244.897 15.3014C244.105 14.4734 243.709 13.4654 243.709 12.2774Z" fill="#2E201C"/>
<path d="M202.528 53.4795L195.13 31.2854C194.77 30.1334 194.356 29.2154 193.888 28.5314C193.42 27.8474 192.88 27.3434 192.268 27.0194C191.656 26.6954 190.936 26.5154 190.108 26.4794V24.3194H205.552V26.4794C204.256 26.5154 203.356 26.7134 202.852 27.0734C202.348 27.3974 202.096 27.9734 202.096 28.8014C202.096 29.1614 202.15 29.5934 202.258 30.0974C202.402 30.5654 202.546 31.1054 202.69 31.7174L206.092 44.3534H206.308L213.868 24.3194H218.296L223.966 44.3534H224.236L228.556 33.1754C228.808 32.5634 228.988 32.0234 229.096 31.5554C229.24 31.0514 229.348 30.6014 229.42 30.2054C229.492 29.7734 229.528 29.3954 229.528 29.0714C229.528 28.1354 229.222 27.4694 228.61 27.0734C227.998 26.6774 227.17 26.4794 226.126 26.4794V24.3194H237.736V26.4794C237.088 26.4794 236.548 26.5514 236.116 26.6954C235.684 26.8394 235.252 27.1814 234.82 27.7214C234.424 28.2614 233.956 29.0894 233.416 30.2054C232.912 31.3214 232.282 32.8514 231.526 34.7954L224.074 53.4795H219.808L214.084 34.3094H213.868L206.578 53.4795H202.528Z" fill="#2E201C"/>
<path d="M155.512 53.4795C152.776 53.4795 150.346 52.8674 148.222 51.6434C146.134 50.3834 144.496 48.6554 143.308 46.4594C142.12 44.2274 141.526 41.6894 141.526 38.8454C141.526 35.9654 142.12 33.3914 143.308 31.1234C144.496 28.8554 146.116 27.0734 148.168 25.7774C150.256 24.4454 152.596 23.7794 155.188 23.7794C156.988 23.7794 158.59 24.0494 159.994 24.5894C161.398 25.1294 162.604 26.0474 163.612 27.3434H163.828V22.7534C163.828 20.6294 163.792 18.8114 163.72 17.2994C163.684 15.7514 163.612 14.7434 163.504 14.2754C163.36 13.5194 162.82 12.9794 161.884 12.6554C160.948 12.2954 159.526 12.1154 157.618 12.1154V10.2794L171.28 8.11945V39.0074C171.28 41.6714 171.298 43.7414 171.334 45.2174C171.406 46.6935 171.514 47.8094 171.658 48.5654C171.838 49.5014 172.162 50.1134 172.63 50.4014C173.098 50.6534 174.106 50.7794 175.654 50.7794V52.8854L165.394 53.4795V49.4834H165.178C163.954 50.8154 162.514 51.8234 160.858 52.5075C159.238 53.1554 157.456 53.4795 155.512 53.4795ZM163.72 39.5474V37.4414C163.72 36.0734 163.576 34.8134 163.288 33.6614C163 32.4734 162.568 31.4294 161.992 30.5294C161.344 29.4854 160.516 28.6934 159.508 28.1534C158.5 27.6134 157.42 27.3434 156.268 27.3434C154.18 27.3434 152.56 28.3334 151.408 30.3134C150.292 32.2574 149.734 35.0654 149.734 38.7374C149.734 42.4454 150.292 45.3254 151.408 47.3774C152.524 49.3934 154.126 50.4014 156.214 50.4014C157.402 50.4014 158.536 50.0954 159.616 49.4834C160.696 48.8714 161.578 48.0434 162.262 46.9995C162.766 46.2075 163.126 45.2355 163.342 44.0835C163.594 42.8955 163.72 41.3834 163.72 39.5474Z" fill="#2E201C"/>
<path d="M135.48 46.0275L136.992 47.9174C133.716 51.6255 129.63 53.4795 124.734 53.4795C121.782 53.4795 119.19 52.8674 116.958 51.6434C114.726 50.4194 112.98 48.7274 111.72 46.5674C110.496 44.3714 109.884 41.8514 109.884 39.0074C109.884 36.0194 110.532 33.3914 111.828 31.1234C113.16 28.8194 114.996 27.0194 117.336 25.7234C119.676 24.4274 122.358 23.7794 125.382 23.7794C129.198 23.7794 132.168 24.8234 134.292 26.9114C136.416 28.9634 137.478 31.8254 137.478 35.4974C137.478 36.0734 137.388 36.4334 137.208 36.5774C137.028 36.6854 136.524 36.7394 135.696 36.7394H118.308C118.236 36.9194 118.182 37.1534 118.146 37.4414C118.11 37.7294 118.092 38.0894 118.092 38.5214C118.092 40.8614 118.434 42.8954 119.118 44.6234C119.838 46.3154 120.828 47.6294 122.088 48.5654C123.384 49.5014 124.896 49.9694 126.624 49.9694C128.136 49.9694 129.63 49.6274 131.106 48.9435C132.618 48.2594 134.076 47.2874 135.48 46.0275ZM118.686 33.7154H126.516C127.992 33.7154 128.928 33.6434 129.324 33.4994C129.72 33.3194 129.918 32.9234 129.918 32.3114C129.918 30.7274 129.468 29.4314 128.568 28.4234C127.668 27.4154 126.534 26.9114 125.166 26.9114C123.618 26.9114 122.232 27.5594 121.008 28.8554C119.82 30.1154 119.046 31.7354 118.686 33.7154Z" fill="#2E201C"/>
<path d="M74.3131 52.9394V50.7794C75.6451 50.7435 76.6531 50.5634 77.3371 50.2394C78.0211 49.8794 78.4891 49.2495 78.7411 48.3494C78.9931 47.4494 79.1191 46.1535 79.1191 44.4614V21.5654C79.1191 19.1894 79.0651 17.2814 78.9571 15.8414C78.8851 14.4014 78.5431 13.4114 77.9311 12.8714C77.5711 12.5474 77.1031 12.3494 76.5271 12.2774C75.9871 12.2054 75.3031 12.1694 74.4751 12.1694V10.1714L86.5171 8.11945V38.1434L91.7011 33.2294C93.5731 31.4654 94.9051 30.1334 95.6971 29.2334C96.4891 28.3334 96.8851 27.7034 96.8851 27.3434C96.8851 27.0194 96.5431 26.8034 95.8591 26.6954C95.2111 26.5514 93.9871 26.4794 92.1871 26.4794V24.3194H106.929V26.4794C106.029 26.4794 105.201 26.5874 104.445 26.8034C103.689 26.9834 102.951 27.3074 102.231 27.7754C101.511 28.2074 100.737 28.8194 99.9091 29.6114L94.6711 34.5254L104.013 47.7554C104.589 48.5114 105.129 49.1235 105.633 49.5914C106.137 50.0234 106.695 50.3294 107.307 50.5094C107.955 50.6894 108.711 50.7794 109.575 50.7794V52.9394H92.7811V50.7794C93.9331 50.7794 94.7431 50.7434 95.2111 50.6714C95.6791 50.5634 95.9131 50.3834 95.9131 50.1315C95.9131 49.8795 95.7151 49.3935 95.3191 48.6735C94.9231 47.9534 94.2571 46.9095 93.3211 45.5415L89.2171 39.3854L86.5171 41.9774V44.0835C86.5171 45.9555 86.6071 47.3774 86.7871 48.3494C87.0031 49.2854 87.3811 49.9334 87.9211 50.2934C88.4611 50.6175 89.2351 50.7794 90.2431 50.7794V52.9394H74.3131Z" fill="#2E201C"/>
<path d="M66.9033 53.4795C65.2473 53.4795 63.9692 52.9935 63.0693 52.0215C62.2052 51.0135 61.7733 49.5735 61.7733 47.7015H61.5033C60.5312 49.5014 59.1993 50.9054 57.5073 51.9134C55.8153 52.9214 53.9613 53.4254 51.9453 53.4254C50.2893 53.4254 48.8853 53.1194 47.7332 52.5075C46.5812 51.8595 45.7173 51.0314 45.1413 50.0234C44.5653 49.0154 44.2772 47.9354 44.2772 46.7834C44.2772 45.0194 44.9972 43.4534 46.4372 42.0854C47.9132 40.6814 50.2533 39.2954 53.4572 37.9274L61.0173 34.6874V32.4194C61.0173 30.3674 60.6393 28.8554 59.8833 27.8834C59.1632 26.9114 58.0473 26.4254 56.5353 26.4254C55.4913 26.4254 54.6993 26.6954 54.1593 27.2354C53.6193 27.7394 53.0973 28.6754 52.5933 30.0434C52.3053 30.8714 51.8553 31.5554 51.2433 32.0954C50.6313 32.6354 49.8213 32.9054 48.8133 32.9054C47.8053 32.9054 47.0132 32.6174 46.4372 32.0414C45.8972 31.4294 45.6273 30.6194 45.6273 29.6114C45.6273 27.7754 46.5812 26.3534 48.4893 25.3454C50.3973 24.3014 53.2052 23.7794 56.9132 23.7794C61.0173 23.7794 63.9333 24.4994 65.6613 25.9394C67.3893 27.3794 68.2533 29.8274 68.2533 33.2834V45.1094C68.2533 46.6934 68.3973 47.8634 68.6853 48.6194C69.0093 49.3395 69.5133 49.6994 70.1973 49.6994C70.4853 49.6994 70.7733 49.6455 71.0613 49.5374C71.3853 49.4294 71.6913 49.2494 71.9793 48.9974L72.7893 50.5634C72.3213 51.4274 71.5473 52.1294 70.4673 52.6694C69.3873 53.2094 68.1992 53.4795 66.9033 53.4795ZM55.2933 48.4035C56.3013 48.4035 57.2372 48.1515 58.1012 47.6474C58.9652 47.1434 59.6673 46.4594 60.2073 45.5954C60.7473 44.6954 61.0173 43.7234 61.0173 42.6794V37.5494C58.7493 38.6294 56.9493 39.5835 55.6173 40.4114C54.2853 41.2394 53.3312 42.0314 52.7552 42.7874C52.1792 43.5434 51.8913 44.3535 51.8913 45.2174C51.8913 46.1894 52.1973 46.9634 52.8092 47.5394C53.4212 48.1154 54.2493 48.4035 55.2933 48.4035Z" fill="#2E201C"/>
<path d="M1.192 52.9394V50.7794C2.812 50.7075 4.018 50.5274 4.81 50.2394C5.638 49.9154 6.196 49.3214 6.484 48.4575C6.772 47.5935 6.916 46.3154 6.916 44.6234V19.6754C6.916 17.9834 6.808 16.7234 6.592 15.8954C6.376 15.0314 5.926 14.4374 5.242 14.1134C4.594 13.7894 3.622 13.5914 2.326 13.5194V11.3594H19.66C25.06 11.3594 29.236 12.2414 32.188 14.0054C35.14 15.7694 36.616 18.2534 36.616 21.4574C36.616 23.6174 35.842 25.4534 34.294 26.9654C32.782 28.4414 30.478 29.6294 27.382 30.5294V30.7454C30.046 30.7454 32.332 31.2314 34.24 32.2034C36.184 33.1754 37.678 34.5074 38.722 36.1994C39.802 37.8914 40.342 39.8174 40.342 41.9774C40.342 43.8134 39.892 45.4154 38.992 46.7834C38.128 48.1514 36.868 49.3034 35.212 50.2394C33.628 51.1395 31.72 51.8235 29.488 52.2915C27.256 52.7234 24.754 52.9394 21.982 52.9394H1.192ZM22.36 49.6455C28.156 49.6455 31.054 47.0354 31.054 41.8154C31.054 40.2314 30.802 38.8634 30.298 37.7114C29.794 36.5234 29.002 35.5514 27.922 34.7954C26.842 34.0394 25.438 33.4994 23.71 33.1754C21.982 32.8514 19.894 32.6894 17.446 32.6894H14.854V43.4894C14.854 45.6854 15.43 47.2694 16.582 48.2414C17.734 49.1774 19.66 49.6455 22.36 49.6455ZM14.854 29.4494H18.04C19.66 29.4494 21.064 29.3054 22.252 29.0174C23.476 28.6934 24.484 28.2434 25.276 27.6674C26.176 27.0554 26.824 26.2814 27.22 25.3454C27.652 24.4094 27.868 23.3294 27.868 22.1054C27.868 19.4774 27.22 17.5874 25.924 16.4354C24.628 15.2474 22.54 14.6534 19.66 14.6534H15.826C15.178 14.6534 14.854 14.9594 14.854 15.5714V29.4494Z" fill="#2E201C"/>
<path d="M244.579 6.71015C245.987 6.65036 247.064 5.10001 246.986 3.24733C246.906 1.39476 245.701 -0.0581901 244.292 0.00179234C242.884 0.0623168 241.807 1.61233 241.886 3.46499C241.965 5.31758 243.17 6.77053 244.579 6.71015Z" fill="#6D4C42"/>
<path d="M240.998 11.2034C242.231 10.5617 242.546 8.72719 241.702 7.10461C240.858 5.48274 239.174 4.68799 237.941 5.32908C236.709 5.97109 236.393 7.80589 237.237 9.42813C238.081 11.05 239.765 11.8448 240.998 11.2034Z" fill="#6D4C42"/>
<path d="M250.934 7.01238C252.331 7.20625 253.669 5.87422 253.923 4.03773C254.177 2.20026 253.252 0.554866 251.856 0.361093C250.46 0.167821 249.122 1.5003 248.867 3.33673C248.613 5.17389 249.538 6.81914 250.934 7.01238Z" fill="#6D4C42"/>
<path d="M257.673 6.26739C256.506 5.51212 254.755 6.14325 253.761 7.67777C252.767 9.21303 252.907 11.0693 254.073 11.825C255.24 12.5803 256.991 11.9492 257.985 10.4143C258.979 8.87953 258.839 7.02312 257.673 6.26739Z" fill="#6D4C42"/>
<path d="M250.283 9.56865C249.745 8.66578 248.793 8.03419 247.667 7.98055C246.542 7.92714 245.534 8.46566 244.913 9.31301C244.228 10.2499 243.943 11.2201 243.285 11.8655C242.627 12.5109 240.023 12.4826 239.684 15.5543C239.445 17.7239 241.264 19.5858 243.444 19.6894C245.101 19.7682 246.167 19.24 247.13 19.2855C248.092 19.3311 249.104 19.9583 250.761 20.037C252.941 20.1407 254.929 18.46 254.896 16.2774C254.85 13.1874 252.255 12.9685 251.661 12.2637C251.068 11.559 250.876 10.566 250.283 9.56865Z" fill="#6D4C42"/>
<path d="M292.078 137.349L290.45 139.939H288.156V126.471H291.264C292.103 129.974 293.311 132.564 294.89 134.241C296.469 135.869 298.516 136.683 301.032 136.683C302.857 136.683 304.263 136.313 305.25 135.573C306.286 134.784 306.804 133.723 306.804 132.391C306.804 131.454 306.533 130.566 305.99 129.727C305.447 128.839 304.584 127.951 303.4 127.063C302.265 126.126 300.785 125.164 298.96 124.177C296.493 122.796 294.471 121.464 292.892 120.181C291.363 118.849 290.228 117.468 289.488 116.037C288.797 114.607 288.452 113.053 288.452 111.375C288.452 109.155 288.97 107.182 290.006 105.455C291.091 103.729 292.547 102.372 294.372 101.385C296.197 100.399 298.245 99.9054 300.514 99.9054C302.043 99.9054 303.573 100.127 305.102 100.571C306.631 101.015 307.939 101.632 309.024 102.421L310.356 100.645H312.28V111.819H309.394C308.259 109.007 307.075 106.985 305.842 105.751C304.658 104.518 303.203 103.901 301.476 103.901C300.095 103.901 298.985 104.271 298.146 105.011C297.357 105.751 296.962 106.738 296.962 107.971C296.962 109.353 297.579 110.66 298.812 111.893C300.045 113.127 302.043 114.483 304.806 115.963C307.47 117.394 309.616 118.8 311.244 120.181C312.921 121.563 314.13 122.993 314.87 124.473C315.61 125.953 315.98 127.581 315.98 129.357C315.98 132.761 314.747 135.499 312.28 137.571C309.863 139.643 306.607 140.679 302.512 140.679C300.391 140.679 298.417 140.408 296.592 139.865C294.767 139.273 293.262 138.435 292.078 137.349Z" fill="#2E201C"/>
<path d="M259.788 159.179C253.621 159.179 248.885 158.242 245.58 156.367C242.275 154.542 240.622 151.903 240.622 148.449C240.622 146.131 241.288 144.305 242.62 142.973C244.001 141.691 245.703 141.049 247.726 141.049C249.009 141.049 250.242 141.296 251.426 141.789C252.659 142.332 253.671 143.097 254.46 144.083C253.177 144.33 252.117 144.897 251.278 145.785C250.489 146.723 250.094 147.857 250.094 149.189C250.094 151.064 250.982 152.519 252.758 153.555C254.534 154.641 257.149 155.183 260.602 155.183C267.903 155.183 271.554 152.865 271.554 148.227C271.554 146.501 271.011 145.045 269.926 143.861C268.89 142.677 267.287 141.937 265.116 141.641L252.166 139.865C249.453 139.471 247.405 138.657 246.024 137.423C244.643 136.19 243.952 134.562 243.952 132.539C243.952 130.517 244.593 128.864 245.876 127.581C247.208 126.299 249.083 125.411 251.5 124.917V124.621C249.28 123.733 247.455 122.204 246.024 120.033C244.593 117.813 243.878 115.421 243.878 112.855C243.878 110.389 244.544 108.193 245.876 106.269C247.208 104.345 249.009 102.816 251.278 101.681C253.597 100.547 256.162 99.9794 258.974 99.9794C261.145 99.9794 263.241 100.3 265.264 100.941C267.287 101.583 269.013 102.471 270.444 103.605C272.319 102.125 273.971 101.163 275.402 100.719C276.882 100.226 278.239 99.9794 279.472 99.9794C281.347 99.9794 282.851 100.399 283.986 101.237C285.17 102.076 285.762 103.186 285.762 104.567C285.762 105.603 285.441 106.467 284.8 107.157C284.159 107.799 283.345 108.119 282.358 108.119C281.371 108.119 280.582 107.848 279.99 107.305C279.447 106.763 278.905 106.245 278.362 105.751C277.869 105.209 277.178 104.937 276.29 104.937C275.205 104.937 274.169 105.603 273.182 106.935C273.675 107.774 274.021 108.687 274.218 109.673C274.415 110.611 274.514 111.647 274.514 112.781C274.514 114.705 274.218 116.481 273.626 118.109C273.034 119.688 272.097 121.119 270.814 122.401C269.581 123.635 267.977 124.671 266.004 125.509C264.031 126.299 261.638 126.841 258.826 127.137C257.297 127.285 256.063 127.483 255.126 127.729C254.189 127.976 253.523 128.272 253.128 128.617C252.733 128.913 252.536 129.333 252.536 129.875C252.536 130.467 252.807 130.936 253.35 131.281C253.942 131.627 254.781 131.873 255.866 132.021L267.928 133.501C271.727 133.995 274.736 135.401 276.956 137.719C279.176 140.038 280.286 142.924 280.286 146.377C280.286 150.571 278.535 153.753 275.032 155.923C271.579 158.094 266.497 159.179 259.788 159.179ZM259.418 122.919C260.997 122.919 262.23 122.081 263.118 120.403C264.006 118.726 264.45 116.383 264.45 113.373C264.45 110.315 264.006 107.971 263.118 106.343C262.23 104.666 260.972 103.827 259.344 103.827C257.667 103.827 256.335 104.666 255.348 106.343C254.361 108.021 253.868 110.315 253.868 113.225C253.868 116.136 254.361 118.479 255.348 120.255C256.384 122.031 257.741 122.919 259.418 122.919Z" fill="#2E201C"/>
<path d="M204.246 117.665V127.877C204.246 130.541 204.37 132.49 204.616 133.723C204.863 134.957 205.43 135.771 206.318 136.165C207.256 136.56 208.711 136.831 210.684 136.979V139.939H187.374V136.979C189.298 136.831 190.729 136.585 191.666 136.239C192.604 135.845 193.22 135.055 193.516 133.871C193.812 132.687 193.96 130.862 193.96 128.395V119.145C193.96 116.235 193.911 113.891 193.812 112.115C193.714 110.29 193.59 109.057 193.442 108.415C193.146 107.133 192.579 106.294 191.74 105.899C190.902 105.505 189.348 105.307 187.078 105.307V102.791L201.36 99.9794L202.322 106.491H202.618C204.246 104.469 206.17 102.89 208.39 101.755C210.66 100.571 213.102 99.9794 215.716 99.9794C218.874 99.9794 221.414 100.423 223.338 101.311C225.312 102.15 227.063 103.581 228.592 105.603C229.431 106.738 230.171 108.218 230.812 110.043C231.454 111.819 231.774 114.286 231.774 117.443V127.877C231.774 130.541 231.898 132.49 232.144 133.723C232.391 134.957 232.958 135.771 233.846 136.165C234.784 136.56 236.19 136.831 238.064 136.979V139.939H214.902V136.979C216.876 136.881 218.306 136.634 219.194 136.239C220.132 135.845 220.748 135.055 221.044 133.871C221.34 132.638 221.488 130.813 221.488 128.395V118.331C221.488 113.299 220.847 109.797 219.564 107.823C218.331 105.801 216.111 104.789 212.904 104.789C211.326 104.789 209.969 105.233 208.834 106.121C207.7 107.009 206.713 108.243 205.874 109.821C205.578 110.413 205.307 111.129 205.06 111.967C204.814 112.806 204.616 113.719 204.468 114.705C204.32 115.643 204.246 116.629 204.246 117.665Z" fill="#2E201C"/>
<path d="M177.508 99.9794V127.803C177.508 130.418 177.631 132.367 177.878 133.649C178.174 134.932 178.791 135.795 179.728 136.239C180.665 136.634 182.071 136.881 183.946 136.979V139.939H160.636V136.979C162.511 136.881 163.917 136.609 164.854 136.165C165.791 135.672 166.408 134.833 166.704 133.649C167.049 132.416 167.222 130.64 167.222 128.321V119.219C167.222 116.358 167.173 113.99 167.074 112.115C166.975 110.241 166.852 108.983 166.704 108.341C166.457 107.108 165.89 106.294 165.002 105.899C164.163 105.505 162.609 105.307 160.34 105.307V102.791L177.508 99.9794ZM166.63 84.2174C166.63 82.6387 167.173 81.3067 168.258 80.2214C169.393 79.0867 170.774 78.5194 172.402 78.5194C173.981 78.5194 175.313 79.0867 176.398 80.2214C177.533 81.3067 178.1 82.6387 178.1 84.2174C178.1 85.8454 177.533 87.2267 176.398 88.3614C175.313 89.4467 173.981 89.9894 172.402 89.9894C170.774 89.9894 169.393 89.4467 168.258 88.3614C167.173 87.2267 166.63 85.8454 166.63 84.2174Z" fill="#2E201C"/>
<path d="M150.463 78.5194V127.803C150.463 130.418 150.587 132.367 150.833 133.649C151.129 134.932 151.746 135.795 152.683 136.239C153.621 136.634 155.027 136.881 156.901 136.979V139.939H133.591V136.979C135.466 136.881 136.872 136.609 137.809 136.165C138.747 135.672 139.363 134.833 139.659 133.649C140.005 132.416 140.177 130.64 140.177 128.321V97.7594C140.177 94.8981 140.128 92.5301 140.029 90.6554C139.931 88.7807 139.807 87.5227 139.659 86.8814C139.413 85.648 138.845 84.8341 137.957 84.4394C137.119 84.0447 135.565 83.8474 133.295 83.8474V81.3314L150.463 78.5194Z" fill="#2E201C"/>
<path d="M126.786 130.467L128.858 133.057C124.369 138.139 118.77 140.679 112.06 140.679C108.015 140.679 104.463 139.841 101.404 138.163C98.3456 136.486 95.953 134.167 94.2263 131.207C92.549 128.198 91.7103 124.745 91.7103 120.847C91.7103 116.753 92.5983 113.151 94.3743 110.043C96.1996 106.886 98.7156 104.419 101.922 102.643C105.129 100.867 108.804 99.9794 112.948 99.9794C118.178 99.9794 122.248 101.41 125.158 104.271C128.069 107.083 129.524 111.005 129.524 116.037C129.524 116.827 129.401 117.32 129.154 117.517C128.908 117.665 128.217 117.739 127.082 117.739H103.254C103.156 117.986 103.082 118.307 103.032 118.701C102.983 119.096 102.958 119.589 102.958 120.181C102.958 123.388 103.427 126.175 104.364 128.543C105.351 130.862 106.708 132.663 108.434 133.945C110.21 135.228 112.282 135.869 114.65 135.869C116.722 135.869 118.77 135.401 120.792 134.463C122.864 133.526 124.862 132.194 126.786 130.467ZM103.772 113.595H114.502C116.525 113.595 117.808 113.497 118.35 113.299C118.893 113.053 119.164 112.51 119.164 111.671C119.164 109.501 118.548 107.725 117.314 106.343C116.081 104.962 114.527 104.271 112.652 104.271C110.531 104.271 108.632 105.159 106.954 106.935C105.326 108.662 104.266 110.882 103.772 113.595Z" fill="#2E201C"/>
<path d="M83.4992 130.467L85.5712 133.057C81.0818 138.139 75.4825 140.679 68.7732 140.679C64.7278 140.679 61.1758 139.841 58.1172 138.163C55.0585 136.486 52.6658 134.167 50.9392 131.207C49.2618 128.198 48.4232 124.745 48.4232 120.847C48.4232 116.753 49.3112 113.151 51.0872 110.043C52.9125 106.886 55.4285 104.419 58.6352 102.643C61.8418 100.867 65.5172 99.9794 69.6612 99.9794C74.8905 99.9794 78.9605 101.41 81.8712 104.271C84.7818 107.083 86.2372 111.005 86.2372 116.037C86.2372 116.827 86.1138 117.32 85.8672 117.517C85.6205 117.665 84.9298 117.739 83.7952 117.739H59.9672C59.8685 117.986 59.7945 118.307 59.7452 118.701C59.6958 119.096 59.6712 119.589 59.6712 120.181C59.6712 123.388 60.1398 126.175 61.0772 128.543C62.0638 130.862 63.4205 132.663 65.1472 133.945C66.9232 135.228 68.9952 135.869 71.3632 135.869C73.4352 135.869 75.4825 135.401 77.5052 134.463C79.5772 133.526 81.5752 132.194 83.4992 130.467ZM60.4852 113.595H71.2152C73.2378 113.595 74.5205 113.497 75.0632 113.299C75.6058 113.053 75.8772 112.51 75.8772 111.671C75.8772 109.501 75.2605 107.725 74.0272 106.343C72.7938 104.962 71.2398 104.271 69.3652 104.271C67.2438 104.271 65.3445 105.159 63.6672 106.935C62.0392 108.662 60.9785 110.882 60.4852 113.595Z" fill="#2E201C"/>
<path d="M0 139.939V136.979C2.22 136.881 3.87267 136.634 4.958 136.239C6.09267 135.795 6.83267 134.981 7.178 133.797C7.57267 132.613 7.77 130.862 7.77 128.543V94.3554C7.77 92.0367 7.59733 90.3101 7.252 89.1754C6.90667 87.9914 6.24067 87.1774 5.254 86.7334C4.26733 86.2894 2.78733 86.0181 0.814 85.9194V82.9594H46.102L46.99 98.5734H43.882C43.4873 95.7614 42.8213 93.5167 41.884 91.8394C40.996 90.1621 39.6147 88.9534 37.74 88.2134C35.9147 87.4734 33.3987 87.1034 30.192 87.1034H19.98C19.092 87.1034 18.648 87.5227 18.648 88.3614V109.747C22.644 109.747 25.7027 109.501 27.824 109.007C29.9453 108.514 31.45 107.577 32.338 106.195C33.226 104.814 33.7933 102.791 34.04 100.127H36.778V123.289H34.04C33.744 121.217 33.3 119.565 32.708 118.331C32.1653 117.049 31.3513 116.087 30.266 115.445C29.1807 114.755 27.7007 114.286 25.826 114.039C23.9513 113.793 21.5587 113.669 18.648 113.669V128.025C18.648 130.541 18.8947 132.441 19.388 133.723C19.8813 134.957 20.8927 135.795 22.422 136.239C24.0007 136.634 26.344 136.881 29.452 136.979V139.939H0Z" fill="#2E201C"/>
<path d="M162.894 83.943L171.745 92.794L180.596 83.943C181.638 82.9009 182.224 81.4874 182.224 80.0136V79.7643C182.224 76.8329 179.847 74.4565 176.916 74.4565C175.304 74.4565 173.779 75.1894 172.771 76.4485L171.745 77.731L170.719 76.4485C169.712 75.1894 168.187 74.4565 166.575 74.4565C163.643 74.4565 161.267 76.8329 161.267 79.7643V80.0136C161.267 81.4874 161.852 82.9009 162.894 83.943Z" fill="#6D4C42"/>
</svg>
